<svg width="159" height="165" viewBox="0 0 159 165" fill="none" xmlns="http://www.w3.org/2000/svg">
    <g clip-path="url(#clip0)">
        <rect width="159" height="165" fill="black"/>
        <g filter="url(#filter0_d)">
            <mask id="path-1-inside-1" fill="white">
                <path fill-rule="evenodd" clip-rule="evenodd" d="M71.5354 6C67.6694 6 64.5354 9.13401 64.5354 13V28.5928C59.9659 29.7046 55.6105 31.3912 51.5441 33.5749L38.8165 20.8472C36.0828 18.1136 31.6507 18.1136 28.917 20.8472L17.6532 32.111C14.9195 34.8447 14.9195 39.2768 17.6532 42.0105L29.8228 54.1802C26.7595 59.1693 24.4064 64.6718 22.9112 70.5352H7C3.13401 70.5352 0 73.6692 0 77.5352V93.4646C0 97.3306 3.13401 100.465 7 100.465H22.9111C24.2322 105.645 26.2228 110.544 28.7813 115.055L17.6531 126.184C14.9194 128.917 14.9194 133.349 17.6531 136.083L28.9169 147.347C31.6505 150.081 36.0827 150.081 38.8164 147.347L49.7467 136.417C54.3179 139.094 59.2854 141.13 64.5354 142.407V158C64.5354 161.866 67.6694 165 71.5354 165H87.4648C91.3308 165 94.4648 161.866 94.4648 158V141.271C99.8287 139.523 104.847 136.969 109.388 133.745L120.184 144.541C122.917 147.275 127.349 147.275 130.083 144.541L141.347 133.277C144.081 130.544 144.081 126.111 141.347 123.378L128.523 110.553C129.997 107.341 131.196 103.967 132.089 100.465H152C155.866 100.465 159 97.3306 159 93.4646V77.5352C159 73.6692 155.866 70.5352 152 70.5352H132.089C131.018 66.3369 129.508 62.3236 127.612 58.5513L141.347 44.8165C144.08 42.0828 144.08 37.6507 141.347 34.917L130.083 23.6532C127.349 20.9195 122.917 20.9195 120.184 23.6532L107.721 36.1157C103.629 33.4256 99.1805 31.2657 94.4648 29.7293V13C94.4648 9.13401 91.3308 6 87.4648 6H71.5354ZM79.5001 120.574C98.8707 120.574 114.574 104.871 114.574 85.5001C114.574 66.1295 98.8707 50.4266 79.5001 50.4266C60.1295 50.4266 44.4266 66.1295 44.4266 85.5001C44.4266 104.871 60.1295 120.574 79.5001 120.574Z"/>
            </mask>
            <path fill-rule="evenodd" clip-rule="evenodd" d="M71.5354 6C67.6694 6 64.5354 9.13401 64.5354 13V28.5928C59.9659 29.7046 55.6105 31.3912 51.5441 33.5749L38.8165 20.8472C36.0828 18.1136 31.6507 18.1136 28.917 20.8472L17.6532 32.111C14.9195 34.8447 14.9195 39.2768 17.6532 42.0105L29.8228 54.1802C26.7595 59.1693 24.4064 64.6718 22.9112 70.5352H7C3.13401 70.5352 0 73.6692 0 77.5352V93.4646C0 97.3306 3.13401 100.465 7 100.465H22.9111C24.2322 105.645 26.2228 110.544 28.7813 115.055L17.6531 126.184C14.9194 128.917 14.9194 133.349 17.6531 136.083L28.9169 147.347C31.6505 150.081 36.0827 150.081 38.8164 147.347L49.7467 136.417C54.3179 139.094 59.2854 141.13 64.5354 142.407V158C64.5354 161.866 67.6694 165 71.5354 165H87.4648C91.3308 165 94.4648 161.866 94.4648 158V141.271C99.8287 139.523 104.847 136.969 109.388 133.745L120.184 144.541C122.917 147.275 127.349 147.275 130.083 144.541L141.347 133.277C144.081 130.544 144.081 126.111 141.347 123.378L128.523 110.553C129.997 107.341 131.196 103.967 132.089 100.465H152C155.866 100.465 159 97.3306 159 93.4646V77.5352C159 73.6692 155.866 70.5352 152 70.5352H132.089C131.018 66.3369 129.508 62.3236 127.612 58.5513L141.347 44.8165C144.08 42.0828 144.08 37.6507 141.347 34.917L130.083 23.6532C127.349 20.9195 122.917 20.9195 120.184 23.6532L107.721 36.1157C103.629 33.4256 99.1805 31.2657 94.4648 29.7293V13C94.4648 9.13401 91.3308 6 87.4648 6H71.5354ZM79.5001 120.574C98.8707 120.574 114.574 104.871 114.574 85.5001C114.574 66.1295 98.8707 50.4266 79.5001 50.4266C60.1295 50.4266 44.4266 66.1295 44.4266 85.5001C44.4266 104.871 60.1295 120.574 79.5001 120.574Z" fill="white"/>
            <path d="M64.5354 28.5928L64.7718 29.5644L65.5354 29.3786V28.5928H64.5354ZM51.5441 33.5749L50.837 34.282L51.3625 34.8075L52.0172 34.4559L51.5441 33.5749ZM38.8165 20.8472L38.1094 21.5543L38.1094 21.5543L38.8165 20.8472ZM28.917 20.8472L28.2099 20.1401L28.2099 20.1401L28.917 20.8472ZM17.6532 32.111L18.3603 32.8181L18.3603 32.8181L17.6532 32.111ZM17.6532 42.0105L18.3603 41.3034L18.3603 41.3034L17.6532 42.0105ZM29.8228 54.1802L30.675 54.7034L31.0879 54.031L30.5299 53.4731L29.8228 54.1802ZM22.9112 70.5352V71.5352H23.6881L23.8801 70.7823L22.9112 70.5352ZM22.9111 100.465L23.8801 100.217L23.6881 99.4646H22.9111V100.465ZM28.7813 115.055L29.4885 115.762L30.0267 115.224L29.6512 114.562L28.7813 115.055ZM17.6531 126.184L16.946 125.477L16.946 125.477L17.6531 126.184ZM17.6531 136.083L18.3602 135.376L18.3602 135.376L17.6531 136.083ZM28.9169 147.347L28.2098 148.054L28.2098 148.054L28.9169 147.347ZM38.8164 147.347L39.5235 148.054L39.5235 148.054L38.8164 147.347ZM49.7467 136.417L50.2521 135.554L49.5857 135.163L49.0396 135.709L49.7467 136.417ZM64.5354 142.407H65.5354V141.621L64.7718 141.435L64.5354 142.407ZM94.4648 141.271L94.155 140.32L93.4648 140.545V141.271H94.4648ZM109.388 133.745L110.095 133.038L109.498 132.441L108.809 132.93L109.388 133.745ZM130.083 144.541L129.376 143.834L129.376 143.834L130.083 144.541ZM141.347 133.277L142.054 133.984L142.054 133.984L141.347 133.277ZM128.523 110.553L127.614 110.136L127.324 110.769L127.816 111.261L128.523 110.553ZM132.089 100.465V99.4646H131.312L131.12 100.217L132.089 100.465ZM132.089 70.5352L131.12 70.7823L131.312 71.5352H132.089V70.5352ZM127.612 58.5513L126.905 57.8442L126.394 58.355L126.718 59.0004L127.612 58.5513ZM141.347 44.8165L140.64 44.1094L140.64 44.1094L141.347 44.8165ZM141.347 34.917L140.64 35.6241L140.64 35.6241L141.347 34.917ZM130.083 23.6532L129.376 24.3603L129.376 24.3603L130.083 23.6532ZM120.184 23.6532L119.476 22.9461L119.476 22.9461L120.184 23.6532ZM107.721 36.1157L107.172 36.9513L107.852 37.3987L108.428 36.8228L107.721 36.1157ZM94.4648 29.7293H93.4648V30.4552L94.155 30.6801L94.4648 29.7293ZM65.5354 13C65.5354 9.6863 68.2217 7 71.5354 7V5C67.1171 5 63.5354 8.58173 63.5354 13H65.5354ZM65.5354 28.5928V13H63.5354V28.5928H65.5354ZM52.0172 34.4559C56.0104 32.3115 60.2864 30.6558 64.7718 29.5644L64.299 27.6211C59.6454 28.7534 55.2106 30.4709 51.071 32.6939L52.0172 34.4559ZM38.1094 21.5543L50.837 34.282L52.2512 32.8678L39.5236 20.1401L38.1094 21.5543ZM29.6241 21.5543C31.9672 19.2112 35.7662 19.2112 38.1094 21.5543L39.5236 20.1401C36.3994 17.0159 31.3341 17.0159 28.2099 20.1401L29.6241 21.5543ZM18.3603 32.8181L29.6241 21.5543L28.2099 20.1401L16.9461 31.4039L18.3603 32.8181ZM18.3603 41.3034C16.0172 38.9603 16.0172 35.1613 18.3603 32.8181L16.9461 31.4039C13.8219 34.5281 13.8219 39.5934 16.9461 42.7176L18.3603 41.3034ZM30.5299 53.4731L18.3603 41.3034L16.9461 42.7176L29.1157 54.8873L30.5299 53.4731ZM23.8801 70.7823C25.3503 65.0173 27.6637 59.6077 30.675 54.7034L28.9707 53.6569C25.8552 58.7308 23.4625 64.3264 21.9422 70.2881L23.8801 70.7823ZM7 71.5352H22.9112V69.5352H7V71.5352ZM1 77.5352C1 74.2215 3.68629 71.5352 7 71.5352V69.5352C2.58172 69.5352 -1 73.1169 -1 77.5352H1ZM1 93.4646V77.5352H-1V93.4646H1ZM7 99.4646C3.6863 99.4646 1 96.7783 1 93.4646H-1C-1 97.8829 2.58173 101.465 7 101.465V99.4646ZM22.9111 99.4646H7V101.465H22.9111V99.4646ZM29.6512 114.562C27.1361 110.127 25.179 105.311 23.8801 100.217L21.9421 100.712C23.2854 105.979 25.3095 110.96 27.9115 115.549L29.6512 114.562ZM18.3602 126.891L29.4885 115.762L28.0742 114.348L16.946 125.477L18.3602 126.891ZM18.3602 135.376C16.017 133.033 16.017 129.234 18.3602 126.891L16.946 125.477C13.8218 128.601 13.8218 133.666 16.946 136.79L18.3602 135.376ZM29.624 146.64L18.3602 135.376L16.946 136.79L28.2098 148.054L29.624 146.64ZM38.1093 146.64C35.7661 148.983 31.9671 148.983 29.624 146.64L28.2098 148.054C31.334 151.178 36.3993 151.178 39.5235 148.054L38.1093 146.64ZM49.0396 135.709L38.1093 146.64L39.5235 148.054L50.4539 137.124L49.0396 135.709ZM64.7718 141.435C59.6185 140.182 54.7413 138.183 50.2521 135.554L49.2414 137.279C53.8945 140.004 58.9523 142.078 64.299 143.379L64.7718 141.435ZM65.5354 158V142.407H63.5354V158H65.5354ZM71.5354 164C68.2217 164 65.5354 161.314 65.5354 158H63.5354C63.5354 162.418 67.1171 166 71.5354 166V164ZM87.4648 164H71.5354V166H87.4648V164ZM93.4648 158C93.4648 161.314 90.7785 164 87.4648 164V166C91.8831 166 95.4648 162.418 95.4648 158H93.4648ZM93.4648 141.271V158H95.4648V141.271H93.4648ZM108.809 132.93C104.349 136.096 99.4206 138.604 94.155 140.32L94.7746 142.221C100.237 140.442 105.346 137.841 109.967 134.561L108.809 132.93ZM120.891 143.834L110.095 133.038L108.681 134.452L119.477 145.248L120.891 143.834ZM129.376 143.834C127.033 146.177 123.234 146.177 120.891 143.834L119.477 145.248C122.601 148.372 127.666 148.372 130.79 145.248L129.376 143.834ZM140.64 132.57L129.376 143.834L130.79 145.248L142.054 133.984L140.64 132.57ZM140.64 124.085C142.983 126.428 142.983 130.227 140.64 132.57L142.054 133.984C145.178 130.86 145.178 125.795 142.054 122.671L140.64 124.085ZM127.816 111.261L140.64 124.085L142.054 122.671L129.23 109.846L127.816 111.261ZM131.12 100.217C130.242 103.661 129.063 106.978 127.614 110.136L129.432 110.97C130.93 107.704 132.15 104.273 133.058 100.712L131.12 100.217ZM152 99.4646H132.089V101.465H152V99.4646ZM158 93.4646C158 96.7783 155.314 99.4646 152 99.4646V101.465C156.418 101.465 160 97.8829 160 93.4646H158ZM158 77.5352V93.4646H160V77.5352H158ZM152 71.5352C155.314 71.5352 158 74.2215 158 77.5352H160C160 73.1169 156.418 69.5352 152 69.5352V71.5352ZM132.089 71.5352H152V69.5352H132.089V71.5352ZM126.718 59.0004C128.582 62.7088 130.067 66.6544 131.12 70.7823L133.058 70.2881C131.969 66.0194 130.434 61.9384 128.505 58.1023L126.718 59.0004ZM140.64 44.1094L126.905 57.8442L128.319 59.2585L142.054 45.5236L140.64 44.1094ZM140.64 35.6241C142.983 37.9672 142.983 41.7662 140.64 44.1094L142.054 45.5236C145.178 42.3994 145.178 37.3341 142.054 34.2099L140.64 35.6241ZM129.376 24.3603L140.64 35.6241L142.054 34.2099L130.79 22.9461L129.376 24.3603ZM120.891 24.3603C123.234 22.0172 127.033 22.0172 129.376 24.3603L130.79 22.9461C127.666 19.8219 122.601 19.8219 119.476 22.9461L120.891 24.3603ZM108.428 36.8228L120.891 24.3603L119.476 22.9461L107.014 35.4086L108.428 36.8228ZM94.155 30.6801C98.7843 32.1883 103.153 34.309 107.172 36.9513L108.27 35.2801C104.106 32.5422 99.5768 30.3431 94.7746 28.7785L94.155 30.6801ZM93.4648 13V29.7293H95.4648V13H93.4648ZM87.4648 7C90.7785 7 93.4648 9.68629 93.4648 13H95.4648C95.4648 8.58172 91.8831 5 87.4648 5V7ZM71.5354 7H87.4648V5H71.5354V7ZM113.574 85.5001C113.574 104.318 98.3184 119.574 79.5001 119.574V121.574C99.423 121.574 115.574 105.423 115.574 85.5001H113.574ZM79.5001 51.4266C98.3184 51.4266 113.574 66.6818 113.574 85.5001H115.574C115.574 65.5773 99.423 49.4266 79.5001 49.4266V51.4266ZM45.4266 85.5001C45.4266 66.6818 60.6818 51.4266 79.5001 51.4266V49.4266C59.5772 49.4266 43.4266 65.5773 43.4266 85.5001H45.4266ZM79.5001 119.574C60.6818 119.574 45.4266 104.318 45.4266 85.5001H43.4266C43.4266 105.423 59.5772 121.574 79.5001 121.574V119.574Z" fill="black" mask="url(#path-1-inside-1)"/>
        </g>
    </g>
    <defs>
        <filter id="filter0_d" x="-4" y="6" width="167" height="167" filterUnits="userSpaceOnUse" color-interpolation-filters="sRGB">
            <feFlood flood-opacity="0" result="BackgroundImageFix"/>
            <feColorMatrix in="SourceAlpha" type="matrix" values="0 0 0 0 0 0 0 0 0 0 0 0 0 0 0 0 0 0 127 0"/>
            <feOffset dy="4"/>
            <feGaussianBlur stdDeviation="2"/>
            <feColorMatrix type="matrix" values="0 0 0 0 0 0 0 0 0 0 0 0 0 0 0 0 0 0 0.25 0"/>
            <feBlend mode="normal" in2="BackgroundImageFix" result="effect1_dropShadow"/>
            <feBlend mode="normal" in="SourceGraphic" in2="effect1_dropShadow" result="shape"/>
        </filter>
        <clipPath id="clip0">
            <rect width="159" height="165" fill="white"/>
        </clipPath>
    </defs>
</svg>
