<svg width="17" height="17" viewBox="0 0 17 17" fill="none" xmlns="http://www.w3.org/2000/svg">
<g clip-path="url(#clip0)">
<path d="M8.5 0.354492C3.80375 0.354492 0 4.09449 0 8.70716C0 12.3983 2.43525 15.5284 5.81187 16.632C6.23687 16.7106 6.39271 16.4521 6.39271 16.2304C6.39271 16.032 6.38562 15.5064 6.38208 14.8102C4.01767 15.3138 3.519 13.6896 3.519 13.6896C3.13225 12.7255 2.57337 12.4677 2.57337 12.4677C1.80342 11.9499 2.63287 11.9605 2.63287 11.9605C3.48642 12.0186 3.93479 12.8212 3.93479 12.8212C4.69271 14.0983 5.9245 13.7292 6.41042 13.516C6.48692 12.9756 6.70579 12.6079 6.94875 12.399C5.06104 12.19 3.077 11.4718 3.077 8.27153C3.077 7.35991 3.40637 6.61474 3.95179 6.03037C3.85617 5.81928 3.56929 4.96999 4.02617 3.81966C4.02617 3.81966 4.73804 3.59583 6.36367 4.67603C7.04367 4.49045 7.76617 4.39837 8.48867 4.39412C9.21117 4.39837 9.93367 4.49045 10.6137 4.67603C12.2287 3.59583 12.9405 3.81966 12.9405 3.81966C13.3974 4.96999 13.1105 5.81928 13.0255 6.03037C13.5674 6.61474 13.8968 7.35991 13.8968 8.27153C13.8968 11.4803 11.9099 12.1865 10.0187 12.3919C10.3162 12.6427 10.5924 13.1548 10.5924 13.9375C10.5924 15.0552 10.5818 15.9534 10.5818 16.2247C10.5818 16.4436 10.7305 16.7049 11.1662 16.6214C14.5669 15.5249 17 12.3926 17 8.70716C17 4.09449 13.1941 0.354492 8.5 0.354492V0.354492Z" fill="white"/>
</g>
<defs>
<clipPath id="clip0">
<rect width="17" height="17" fill="white"/>
</clipPath>
</defs>
</svg>
