<svg width="135" height="135" viewBox="0 0 135 135" fill="none" xmlns="http://www.w3.org/2000/svg">
<path d="M88.8447 50.6699C89.0395 50.9182 89.2275 51.1735 89.4156 51.432C89.2275 51.1735 89.0395 50.9186 88.8447 50.6699Z" fill="#78B9EB"/>
<path d="M86.7754 48.2832C86.9131 48.4241 87.0339 48.5751 87.168 48.7195C87.0343 48.5751 86.9131 48.4241 86.7754 48.2832Z" fill="#78B9EB"/>
<path d="M90.7676 53.5C90.8884 53.705 91.0229 53.9029 91.1402 54.111C91.0225 53.9029 90.8884 53.7148 90.7676 53.5Z" fill="#78B9EB"/>
<path d="M92.502 56.9482C92.5924 57.1733 92.6664 57.4082 92.7537 57.6198C92.6664 57.4082 92.5928 57.1729 92.502 56.9482Z" fill="#78B9EB"/>
<path d="M83.8184 45.7217C84.03 45.883 84.2515 46.0372 84.4596 46.2016C84.2511 46.034 84.0296 45.883 83.8184 45.7217Z" fill="#78B9EB"/>
<path d="M81.0303 43.8711C81.3021 44.0257 81.5673 44.2067 81.836 44.3577C81.5673 44.1933 81.3021 44.0288 81.0303 43.8711Z" fill="#78B9EB"/>
<path d="M82.8184 89.3011C84.8024 88.0524 86.6625 86.6219 88.3779 85.0242C88.8511 84.5777 89.2674 84.0674 89.6101 83.5134C91.4497 80.5458 92.8094 77.306 93.6387 73.915C92.0037 80.1796 88.163 85.6454 82.8184 89.3011Z" fill="#78B9EB"/>
<path d="M70.9863 40.5146C71.3054 40.5516 71.6174 40.6087 71.9298 40.659C71.6174 40.622 71.3054 40.5516 70.9863 40.5146Z" fill="#78B9EB"/>
<path d="M78.1973 42.4346C78.3149 42.4849 78.4223 42.5487 78.5329 42.599C78.4223 42.5487 78.3145 42.4849 78.1973 42.4346Z" fill="#78B9EB"/>
<path d="M93.5332 60.0244C93.6205 60.3399 93.7012 60.6554 93.7783 60.9745C93.7012 60.6554 93.6205 60.3399 93.5332 60.0244Z" fill="#78B9EB"/>
<path d="M67.5344 94.0028C66.7723 94.0028 66.0303 93.9257 65.2852 93.8584C66.0303 93.919 66.7723 94.0028 67.5344 94.0028Z" fill="#78B9EB"/>
<path d="M74.4546 93.1025L74.0518 93.2068L74.4546 93.1025Z" fill="#78B9EB"/>
<path d="M94.2617 63.6289C94.2885 63.8268 94.329 64.0184 94.3522 64.2163C94.3286 64.0184 94.2885 63.8268 94.2617 63.6289Z" fill="#78B9EB"/>
<path d="M64.1775 93.774C63.0897 93.6297 62.0086 93.4282 60.9443 93.1631C62.0086 93.4282 63.0897 93.6297 64.1775 93.774Z" fill="#78B9EB"/>
<path d="M71.131 93.7539C70.9764 93.774 70.8324 93.8043 70.6777 93.8212C70.8288 93.8043 70.9799 93.774 71.131 93.7539Z" fill="#78B9EB"/>
<path d="M82.3799 89.5967C81.9031 89.9091 81.4129 90.201 80.916 90.4862C81.4231 90.2179 81.8933 89.8988 82.3799 89.5967Z" fill="#78B9EB"/>
<path d="M94.4978 67.5439C94.4978 67.8358 94.4675 68.1215 94.4541 68.4102C94.4675 68.1215 94.4946 67.8158 94.4978 67.5439Z" fill="#78B9EB"/>
<path d="M94.2136 70.9678C94.1566 71.364 94.1062 71.7633 94.0322 72.1528C94.103 71.7566 94.1601 71.364 94.2136 70.9678Z" fill="#78B9EB"/>
<path d="M74.333 41.1553C74.6218 41.2292 74.9137 41.293 75.1993 41.3768C74.9137 41.293 74.6218 41.2292 74.333 41.1553Z" fill="#78B9EB"/>
<path d="M10.6503 80.5582H14.3392C17.1192 80.5582 19.604 82.2818 20.5833 84.8841C20.9657 85.8901 21.3779 86.8792 21.8208 87.8519C22.9813 90.387 22.448 93.3748 20.4795 95.3503L17.8603 97.9962C15.2482 100.615 15.2482 104.854 17.8603 107.473L27.337 116.95C29.9562 119.562 34.1949 119.562 36.8137 116.95L39.4463 114.327C41.4214 112.359 44.4092 111.825 46.9447 112.986C47.9174 113.432 48.9065 113.845 49.9125 114.223C52.5148 115.199 54.242 117.684 54.2451 120.464V124.153C54.2451 127.859 57.2463 130.86 60.9521 130.86H74.3657C78.0711 130.86 81.0726 127.859 81.0726 124.153V120.464C81.0726 117.684 82.7963 115.2 85.3986 114.22C86.4046 113.838 87.3937 113.426 88.3663 112.983C90.9015 111.822 93.8893 112.356 95.8648 114.324L98.4974 116.946C101.117 119.559 105.355 119.559 107.974 116.946L117.451 107.47C120.063 104.851 120.063 100.612 117.451 97.993L114.828 95.3605C112.86 93.3854 112.327 90.3976 113.487 87.8621C113.933 86.8895 114.346 85.9003 114.725 84.8943C115.7 82.2853 118.192 80.5582 120.979 80.5582H124.668C128.373 80.5582 131.375 77.557 131.375 73.8512V60.4377C131.375 56.7323 128.374 53.7307 124.668 53.7307H120.979C118.199 53.7307 115.714 52.0071 114.735 49.4048C114.353 48.3988 113.94 47.4097 113.497 46.437C112.334 43.9019 112.87 40.9141 114.839 38.9386L117.461 36.3061C120.073 33.6869 120.073 29.4482 117.461 26.8294L107.983 17.3527C105.364 14.7406 101.126 14.7406 98.5068 17.3527L95.8742 19.9751C93.8991 21.9435 90.9113 22.4768 88.3758 21.3163C87.4032 20.8703 86.414 20.4576 85.408 20.0788C82.799 19.103 81.0719 16.6116 81.0719 13.8246V10.1357C81.0719 6.43028 78.0707 3.42871 74.3649 3.42871H60.9517C57.2463 3.42871 54.2447 6.42989 54.2447 10.1357V13.8246C54.2447 16.6045 52.5211 19.0893 49.9188 20.0686C48.9128 20.451 47.9237 20.8632 46.951 21.3061C44.4159 22.4665 41.4281 21.9333 39.4526 19.9648L36.8067 17.3456C34.1875 14.7335 29.9488 14.7335 27.33 17.3456L17.8666 26.829C15.2545 29.4482 15.2545 33.6869 17.8666 36.3057L20.489 38.9382C22.4574 40.9133 22.9938 43.9012 21.8302 46.4367C21.3842 47.4093 20.9716 48.3984 20.5927 49.4044C19.6134 52.0099 17.1219 53.7339 14.3385 53.7303H10.6503C6.94494 53.7303 3.94336 56.7315 3.94336 60.4373V73.8512C3.94336 77.5566 6.94494 80.5582 10.6503 80.5582ZM60.9517 41.1554C63.1449 40.6021 65.3983 40.3203 67.6587 40.3172C68.7689 40.3239 69.8786 40.4009 70.9821 40.5451C71.3008 40.5821 71.6125 40.639 71.9245 40.6893C72.7395 40.8167 73.5377 40.9845 74.3256 41.1857C74.614 41.2596 74.9056 41.3232 75.1909 41.4069C76.2103 41.6985 77.2097 42.0506 78.1854 42.4633C78.3029 42.5136 78.4102 42.5772 78.5206 42.6275C79.3722 43.0063 80.2042 43.4323 81.0121 43.8984C81.2837 44.056 81.5486 44.2336 81.817 44.3845C82.4878 44.8105 83.1582 45.2664 83.7956 45.7462C84.007 45.9073 84.2283 46.0582 84.4362 46.2256C85.2445 46.876 86.0191 47.5704 86.75 48.3049C86.8876 48.4456 87.0082 48.5965 87.1422 48.7407C87.7325 49.3612 88.2925 50.0116 88.8191 50.6891C89.0136 50.937 89.2014 51.1921 89.3893 51.4503C89.8687 52.1211 90.3214 52.7915 90.7305 53.5162C90.8512 53.7209 90.9856 53.9186 91.1027 54.1264C91.6124 55.0421 92.0651 55.9911 92.4643 56.9602C92.5547 57.185 92.6286 57.4165 92.7159 57.631C93.011 58.4123 93.2727 59.2073 93.4939 60.0188C93.5812 60.3339 93.6618 60.6491 93.7388 60.9678C93.9435 61.843 94.1042 62.7284 94.2217 63.6204C94.2485 63.8181 94.2889 64.0095 94.3121 64.2071C94.423 65.1829 94.4831 66.1622 94.4866 67.1446C94.4866 67.2787 94.4866 67.4095 94.4666 67.5435C94.4666 67.8284 94.4363 68.1204 94.423 68.4089C94.3829 69.2707 94.3055 70.1226 94.1848 70.964C94.131 71.3597 94.074 71.7519 94.0036 72.1477C93.8897 72.7477 93.7419 73.3313 93.591 73.9184C92.7626 77.3055 91.4045 80.5413 89.5669 83.5059C89.225 84.0592 88.8088 84.5689 88.3361 85.0149C86.6294 86.6045 84.7749 88.033 82.7994 89.2772L82.3636 89.5621C81.8775 89.8639 81.391 90.1826 80.9013 90.4506C78.8724 91.6009 76.7027 92.476 74.4458 93.0627L74.0434 93.1669C73.081 93.4015 72.1084 93.5862 71.126 93.7135C70.975 93.7336 70.8241 93.7638 70.6732 93.7807C69.6739 93.9014 68.6647 93.965 67.6587 93.9717H67.5345C66.7733 93.9717 66.0322 93.8947 65.2878 93.8275C64.9224 93.7941 64.5435 93.7972 64.1812 93.7505C63.0946 93.6062 62.0147 93.3983 60.9517 93.1335C46.5989 89.4214 37.9707 74.7771 41.6828 60.4243C44.1275 50.9744 51.5053 43.6001 60.9517 41.1554Z" fill="#D8953D"/>
<path d="M91.1396 54.1113C91.6499 55.028 92.1031 55.9781 92.5029 56.9483C92.1031 55.9777 91.6499 55.028 91.1396 54.1113Z" fill="#78B9EB"/>
<path d="M92.7539 57.6318C93.0494 58.414 93.3114 59.2099 93.5329 60.0223C93.3114 59.2099 93.0494 58.4144 92.7539 57.6318Z" fill="#78B9EB"/>
<path d="M94.516 67.1433C94.5125 66.1664 94.459 65.1895 94.3516 64.2158C94.4692 65.3202 94.516 66.4316 94.4959 67.543C94.516 67.4085 94.516 67.2779 94.516 67.1433Z" fill="#78B9EB"/>
<path d="M93.7783 60.9736C93.9833 61.8498 94.1442 62.7362 94.2619 63.6293C94.1442 62.7362 93.9833 61.8498 93.7783 60.9736Z" fill="#78B9EB"/>
<path d="M71.9297 40.6582C72.7457 40.7857 73.5447 40.9537 74.3335 41.1551C73.5447 40.9568 72.7457 40.7857 71.9297 40.6582Z" fill="#78B9EB"/>
<path d="M67.6582 40.2861C68.7696 40.2928 69.8806 40.3699 70.9854 40.5143C69.8806 40.3699 68.7692 40.2928 67.6582 40.2861Z" fill="#78B9EB"/>
<path d="M78.5371 42.5986C79.3897 42.9779 80.2225 43.4008 81.0314 43.871C80.2222 43.4044 79.3897 42.9779 78.5371 42.5986Z" fill="#78B9EB"/>
<path d="M75.2002 41.377C76.2207 41.6689 77.2212 42.0214 78.1981 42.4345C77.2212 42.0214 76.2207 41.6689 75.2002 41.377Z" fill="#78B9EB"/>
<path d="M89.4131 51.4316C89.8931 52.1032 90.3463 52.7744 90.7558 53.4999C90.3463 52.7882 89.8931 52.0965 89.4131 51.4316Z" fill="#78B9EB"/>
<path d="M87.168 48.7188C87.7554 49.34 88.316 49.9911 88.8467 50.6693C88.3195 49.9915 87.7589 49.34 87.168 48.7188Z" fill="#78B9EB"/>
<path d="M81.8359 44.3584C82.5075 44.7849 83.1787 45.2413 83.8168 45.7216C83.1756 45.2413 82.5173 44.7845 81.8359 44.3584Z" fill="#78B9EB"/>
<path d="M84.4453 46.2012C85.2577 46.8491 86.03 47.5439 86.7618 48.2828C86.03 47.5475 85.2546 46.8527 84.4453 46.2012Z" fill="#78B9EB"/>
<path d="M80.9159 90.4873C78.8748 91.6188 76.7059 92.495 74.4531 93.1024C76.7126 92.515 78.8847 91.6389 80.9159 90.4873Z" fill="#78B9EB"/>
<path d="M74.038 93.2061C73.0745 93.4409 72.1008 93.6258 71.1172 93.7533C72.1008 93.6254 73.0745 93.4409 74.038 93.2061Z" fill="#78B9EB"/>
<path d="M67.6589 94.0017C68.6696 93.9982 69.6768 93.938 70.6804 93.8203C69.6362 93.9411 68.5889 93.9982 67.5381 93.995L67.6589 94.0017Z" fill="#78B9EB"/>
<path d="M65.2856 93.8505C64.9197 93.8171 64.5405 93.8202 64.1777 93.7734C64.5401 93.8202 64.9193 93.8171 65.2856 93.8505Z" fill="#78B9EB"/>
<path d="M94.4542 68.4092C94.4172 69.255 94.3334 70.108 94.2158 70.9672C94.337 70.1249 94.4141 69.272 94.4542 68.4092Z" fill="#78B9EB"/>
<path d="M82.8162 89.3018C82.6718 89.3958 82.5274 89.4965 82.3799 89.587L82.8162 89.3018Z" fill="#78B9EB"/>
<path d="M94.0332 72.1533C93.9258 72.7407 93.7645 73.3352 93.6201 73.9261C93.7712 73.3383 93.9187 72.7545 94.0332 72.1533Z" fill="#78B9EB"/>
<path d="M97.8073 65.8006C97.7738 64.9949 97.7168 64.1927 97.6192 63.3937C97.5118 62.534 97.3843 61.6815 97.2061 60.8455C97.0885 60.2982 96.9342 59.7576 96.7863 59.2139C96.5983 58.5223 96.387 57.8409 96.1517 57.1693C95.9873 56.7027 95.8161 56.2392 95.6414 55.7793C95.2083 54.7049 94.7149 53.654 94.161 52.637C94.1173 52.5599 94.0906 52.4757 94.0469 52.3986C93.1739 50.8442 92.1636 49.3704 91.0254 47.9974C90.9282 47.8766 90.8173 47.7625 90.7165 47.6448C90.2531 47.0976 89.7766 46.5672 89.2762 46.0601C89.0142 45.7883 88.7392 45.5329 88.4638 45.2713C88.1282 44.9589 87.7922 44.6501 87.4566 44.3546C87.0502 44.0021 86.634 43.6598 86.211 43.3274L85.6606 42.9178C80.467 39.0269 74.1486 36.9252 67.659 36.9287C67.3235 36.9287 66.9875 36.9791 66.6519 36.9925C65.9366 37.0125 65.2182 37.053 64.4967 37.1266C64.1174 37.1667 63.7346 37.2104 63.3554 37.2643C62.2609 37.4087 61.1766 37.6101 60.1021 37.8722C43.9371 42.0484 34.2179 58.5392 38.3941 74.7078C41.1469 85.3602 49.4694 93.676 60.1253 96.419C60.1792 96.419 60.2363 96.4359 60.2933 96.4493C61.4516 96.7381 62.6267 96.9631 63.8117 97.1209C64.5939 97.218 65.3764 97.2385 66.1617 97.2755C66.6853 97.3022 67.1688 97.3797 67.7161 97.3797C68.6729 97.3797 69.6667 97.316 70.6806 97.2153C70.788 97.2153 70.8954 97.185 71.0162 97.1716C71.8321 97.0811 72.6579 96.96 73.5006 96.7924C73.8362 96.7286 74.1486 96.6448 74.4708 96.5709C75.0617 96.4332 75.6491 96.2888 76.2534 96.1109C76.7236 95.9701 77.1799 95.8053 77.6399 95.6443C78.0998 95.483 78.5766 95.3088 79.0534 95.1274C79.5303 94.946 79.9296 94.7379 80.3628 94.5364C80.9269 94.278 81.4876 94.0226 82.0415 93.7205H82.0616C85.194 92.0417 88.0877 89.9538 90.6662 87.5063C91.361 86.8552 91.9688 86.1164 92.4657 85.3039C95.0879 81.1041 96.8068 76.4039 97.5216 71.5057C97.6157 70.8577 97.6994 70.2098 97.7498 69.5484C97.7966 68.9406 97.8305 68.3363 97.8438 67.732C97.8438 67.5408 97.8706 67.3594 97.8706 67.1678C97.8745 66.6937 97.8273 66.2574 97.8073 65.8006ZM61.7608 44.3814C63.6878 43.8947 65.6719 43.6461 67.6594 43.6429C68.6198 43.6496 69.5766 43.7133 70.5299 43.8377C70.7852 43.868 71.037 43.9148 71.2888 43.9518C72.0139 44.0659 72.7323 44.2102 73.4408 44.3916C73.6726 44.4522 73.9043 44.5057 74.1325 44.5694C75.9186 45.0832 77.6375 45.8083 79.2521 46.7246C79.5106 46.8757 79.7624 47.0335 80.0177 47.1912C80.5481 47.5268 81.0619 47.8628 81.5686 48.2452C81.8405 48.4431 82.1159 48.6379 82.3779 48.8495C83.0361 49.3767 83.6671 49.9373 84.2679 50.5283C84.5063 50.7698 84.7247 51.0354 84.956 51.2872C85.342 51.707 85.7181 52.1366 86.0773 52.5898C86.3255 52.9022 86.5639 53.2244 86.7992 53.5502C87.1348 54.0337 87.4708 54.5373 87.7729 55.0475C87.9409 55.3261 88.1085 55.5979 88.2801 55.8836C88.7132 56.6791 89.0992 57.5017 89.4348 58.3444C89.5689 58.68 89.683 59.016 89.8042 59.3516C90.0225 59.9693 90.2106 60.5937 90.375 61.2251C90.4588 61.5607 90.5529 61.8597 90.6233 62.1855C90.818 63.0919 90.9624 64.0117 91.0498 64.9351C91.0698 65.1802 91.0698 65.4285 91.0868 65.6736C91.1336 66.4459 91.1473 67.2213 91.117 68.0003C91.117 68.2788 91.0934 68.5578 91.0769 68.8328C91.0163 69.6452 90.9125 70.4576 90.7748 71.2736C89.5193 78.2533 85.185 84.2964 78.9775 87.7239C78.5613 87.9423 78.1517 88.1468 77.7422 88.3349L77.4636 88.469C75.513 89.3554 73.455 89.9762 71.3399 90.3221C71.1924 90.3457 71.0413 90.3724 70.8903 90.3925C70.4705 90.4531 70.0578 90.5034 69.6482 90.54C69.1076 90.5869 68.5639 90.614 68.01 90.6238C67.7751 90.6238 67.5434 90.6238 67.3085 90.6238C66.513 90.6136 65.7206 90.5668 64.9314 90.4763L64.5286 90.4295C63.6052 90.3087 62.6889 90.1376 61.7856 89.9125C49.2129 86.6931 41.6288 73.8918 44.8451 61.3191C46.9704 53.01 53.4564 46.5204 61.762 44.3853L61.7608 44.3814Z" fill="#231F20"/>
<animateTransform
    attributeName="transform"
    begin="0s"
    dur="1s"
    type="rotate"
    from="0"
    to="360"
    repeatCount="infinite"
/>    
</svg>
