<svg width="210" height="57" viewBox="0 0 210 57" fill="none" xmlns="http://www.w3.org/2000/svg">
<rect x="60.3857" y="3.83789" width="92.0528" height="51.5496" fill="#D8953D"/>
<rect x="152.438" y="11.7285" width="55.2317" height="35.5061" fill="#D8953D"/>
<rect width="55.2317" height="35.5061" transform="matrix(1 0 0 -1 152.438 49.8643)" fill="#D8953D"/>
<rect x="60.3857" y="49.8643" width="55.2317" height="38.1362" transform="rotate(-180 60.3857 49.8643)" fill="#D8953D"/>
<circle cx="153.228" cy="11.2024" r="1.05203" fill="#D8953D"/>
<circle r="1.05203" transform="matrix(-1 0 0 1 59.5974 11.2024)" fill="#D8953D"/>
<circle r="1.05203" transform="matrix(1 0 0 -1 153.228 50.3904)" fill="#D8953D"/>
<circle cx="59.726" cy="50.2565" r="1.05203" transform="rotate(172.447 59.726 50.2565)" fill="#D8953D"/>
<path d="M155.332 10.5449C155.332 11.1985 154.28 11.7284 153.885 11.7284C153.086 11.7284 152.438 11.1985 152.438 10.5449C152.438 9.89122 153.086 9.36133 153.885 9.36133C154.684 9.36133 155.332 9.89122 155.332 10.5449Z" fill="black"/>
<path d="M57.2296 10.5449C57.2296 11.1985 58.3773 11.7284 58.8077 11.7284C59.6792 11.7284 60.3857 11.1985 60.3857 10.5449C60.3857 9.89122 59.6792 9.36133 58.8077 9.36133C57.9362 9.36133 57.2296 9.89122 57.2296 10.5449Z" fill="black"/>
<path d="M155.332 51.0479C155.332 50.3943 154.28 49.8644 153.885 49.8644C153.086 49.8644 152.438 50.3943 152.438 51.0479C152.438 51.7016 153.086 52.2314 153.885 52.2314C154.684 52.2314 155.332 51.7016 155.332 51.0479Z" fill="black"/>
<path d="M57.4927 51.0479C57.4927 50.3943 58.5447 49.8644 58.9392 49.8644C59.7381 49.8644 60.3857 50.3943 60.3857 51.0479C60.3857 51.7016 59.7381 52.2314 58.9392 52.2314C58.1403 52.2314 57.4927 51.7016 57.4927 51.0479Z" fill="black"/>
<line x1="107.281" y1="0.892578" x2="107.281" y2="7.52038" stroke="black"/>
<line x1="107.281" y1="8.99316" x2="107.281" y2="15.621" stroke="black"/>
<line x1="203.252" y1="31.3223" x2="209.88" y2="31.3223" stroke="black"/>
<line x1="194.415" y1="31.3223" x2="201.043" y2="31.3223" stroke="black"/>
<line x1="185.579" y1="31.3223" x2="192.207" y2="31.3223" stroke="black"/>
<line x1="176.741" y1="31.3223" x2="183.369" y2="31.3223" stroke="black"/>
<line x1="167.904" y1="31.3223" x2="174.532" y2="31.3223" stroke="black"/>
<line x1="159.067" y1="31.3223" x2="165.695" y2="31.3223" stroke="black"/>
<line x1="150.229" y1="31.3223" x2="156.857" y2="31.3223" stroke="black"/>
<line x1="141.393" y1="31.3223" x2="148.02" y2="31.3223" stroke="black"/>
<line x1="132.557" y1="31.3223" x2="139.184" y2="31.3223" stroke="black"/>
<line x1="123.719" y1="31.3223" x2="130.347" y2="31.3223" stroke="black"/>
<line x1="114.882" y1="31.3223" x2="121.51" y2="31.3223" stroke="black"/>
<line x1="106.045" y1="31.3223" x2="112.673" y2="31.3223" stroke="black"/>
<line x1="97.207" y1="31.3223" x2="103.835" y2="31.3223" stroke="black"/>
<line x1="88.3701" y1="31.3223" x2="94.9979" y2="31.3223" stroke="black"/>
<line x1="79.5342" y1="31.3223" x2="86.162" y2="31.3223" stroke="black"/>
<line x1="70.6973" y1="31.3223" x2="77.3251" y2="31.3223" stroke="black"/>
<line x1="61.8594" y1="31.3223" x2="68.4872" y2="31.3223" stroke="black"/>
<line x1="53.0225" y1="31.3223" x2="59.6503" y2="31.3223" stroke="black"/>
<line x1="44.1855" y1="31.3223" x2="50.8133" y2="31.3223" stroke="black"/>
<line x1="35.3477" y1="31.3223" x2="41.9755" y2="31.3223" stroke="black"/>
<line x1="26.5117" y1="31.3223" x2="33.1395" y2="31.3223" stroke="black"/>
<line x1="17.6748" y1="31.3223" x2="24.3026" y2="31.3223" stroke="black"/>
<line x1="8.83691" y1="31.3223" x2="15.4647" y2="31.3223" stroke="black"/>
<line y1="31.3223" x2="6.6278" y2="31.3223" stroke="black"/>
<line x1="107.281" y1="17.0937" x2="107.281" y2="23.7215" stroke="black"/>
<line x1="107.281" y1="25.1943" x2="107.281" y2="31.8221" stroke="black"/>
<line x1="107.281" y1="33.2949" x2="107.281" y2="39.9227" stroke="black"/>
<line x1="107.281" y1="41.3955" x2="107.281" y2="48.0233" stroke="black"/>
<line x1="107.281" y1="49.4961" x2="107.281" y2="56.1239" stroke="black"/>
</svg>
