<svg width="177" height="162" viewBox="0 0 177 162" fill="none" xmlns="http://www.w3.org/2000/svg">
<rect x="13.25" y="1.25" width="122.5" height="146.5" fill="black" stroke="white" stroke-width="2.5"/>
<line x1="27" y1="17.5" x2="117" y2="17.5" stroke="white" stroke-width="3"/>
<line x1="27" y1="29.5" x2="117" y2="29.5" stroke="white" stroke-width="3"/>
<line x1="86" y1="39.5" x2="117" y2="39.5" stroke="white" stroke-width="3"/>
<line x1="27" y1="39.5" x2="75" y2="39.5" stroke="white" stroke-width="3"/>
<line x1="27" y1="49.5" x2="89" y2="49.5" stroke="white" stroke-width="3"/>
<line x1="27" y1="59.5" x2="117" y2="59.5" stroke="white" stroke-width="3"/>
<line x1="27" y1="69.5" x2="104" y2="69.5" stroke="white" stroke-width="3"/>
<line x1="27" y1="79.5" x2="86" y2="79.5" stroke="white" stroke-width="3"/>
<line x1="89" y1="79.5" x2="120.134" y2="79.5" stroke="white" stroke-width="3"/>
<line x1="27" y1="89.5" x2="117" y2="89.5" stroke="white" stroke-width="3"/>
<line x1="27" y1="99.5" x2="100" y2="99.5" stroke="white" stroke-width="3"/>
<line x1="27" y1="109.5" x2="117" y2="109.5" stroke="white" stroke-width="3"/>
<line x1="27" y1="119.5" x2="86" y2="119.5" stroke="white" stroke-width="3"/>
<line x1="27" y1="129.5" x2="86" y2="129.5" stroke="white" stroke-width="3"/>
<line x1="89" y1="129.5" x2="120" y2="129.5" stroke="white" stroke-width="3"/>
<line x1="4.06122" y1="15.0017" x2="4" y2="160.001" stroke="white" stroke-width="8"/>
<line x1="0.0581055" y1="157.755" x2="122.001" y2="157.755" stroke="white" stroke-width="8"/>
<path d="M150 29C150 27.3431 151.343 26 153 26H170C171.657 26 173 27.3431 173 29V39H150V29Z" fill="white"/>
<path d="M148 41H175V53H148V41Z" fill="white"/>
<path d="M148 61H175V114H148V61Z" fill="white"/>
<path d="M148 55H175V59H148V55Z" fill="white"/>
<path d="M161.5 135L174.923 116.25H148.077L161.5 135Z" fill="white"/>
</svg>
