<svg width="1960" height="2268" viewBox="0 0 1960 2268" fill="none" xmlns="http://www.w3.org/2000/svg">
<circle cx="1584" cy="2084" r="52" fill="#C4C4C4" fill-opacity="0.3"/>
<circle cx="1584" cy="2084" r="81" fill="#C4C4C4" fill-opacity="0.3"/>
<path d="M719 1.5C1178.39 504.5 814.892 1031.98 1.8916 1504.98M1697.57 2256.69C1577.1 2380.46 332.241 1087.38 910.484 723.998C1323.88 468.038 1818.05 2132.92 1697.57 2256.69Z" stroke="white" stroke-width="4"/>
<path d="M1357.84 871.78C1346.36 772.839 1184.54 579.573 1017.09 610.514" stroke="white" stroke-width="4"/>
<line y1="-2" x2="51.7086" y2="-2" transform="matrix(0.796291 0.604914 -0.639074 0.769145 1017.26 612.558)" stroke="white" stroke-width="4"/>
<line y1="-2" x2="52.23" y2="-2" transform="matrix(0.837172 -0.54694 0.577771 0.816199 1017.29 612.828)" stroke="white" stroke-width="4"/>
<line x1="538.461" y1="641.972" x2="1125.12" y2="1064.45" stroke="#E2BCBC" stroke-width="5"/>
<line x1="635.215" y1="266.84" x2="1586.21" y2="2082.84" stroke="#E2BCBC" stroke-width="5"/>
<path d="M371.726 1454.99C371.227 1457.57 370.039 1459.66 368.162 1461.24C366.314 1462.82 363.835 1463.62 360.726 1463.62C359.113 1463.62 357.602 1463.37 356.194 1462.87C354.815 1462.37 353.613 1461.65 352.586 1460.71C351.559 1459.77 350.753 1458.61 350.166 1457.24C349.579 1455.86 349.286 1454.29 349.286 1452.53V1452C349.286 1450.24 349.579 1448.66 350.166 1447.25C350.753 1445.84 351.559 1444.64 352.586 1443.64C353.642 1442.64 354.859 1441.88 356.238 1441.35C357.646 1440.82 359.142 1440.56 360.726 1440.56C363.777 1440.56 366.241 1441.35 368.118 1442.94C370.025 1444.52 371.227 1446.6 371.726 1449.18L366.27 1450.59C366.094 1449.3 365.537 1448.19 364.598 1447.25C363.659 1446.31 362.339 1445.84 360.638 1445.84C359.846 1445.84 359.098 1445.99 358.394 1446.28C357.69 1446.57 357.074 1447 356.546 1447.56C356.018 1448.08 355.593 1448.74 355.27 1449.54C354.977 1450.3 354.83 1451.16 354.83 1452.13V1452.4C354.83 1453.36 354.977 1454.23 355.27 1454.99C355.593 1455.73 356.018 1456.34 356.546 1456.84C357.074 1457.34 357.69 1457.72 358.394 1457.98C359.098 1458.22 359.846 1458.34 360.638 1458.34C362.339 1458.34 363.63 1457.91 364.51 1457.06C365.419 1456.21 366.006 1455.07 366.27 1453.63L371.726 1454.99ZM398.755 1452.35C398.755 1454.17 398.447 1455.78 397.831 1457.19C397.215 1458.57 396.379 1459.74 395.323 1460.71C394.267 1461.65 393.05 1462.37 391.671 1462.87C390.322 1463.37 388.899 1463.62 387.403 1463.62C385.907 1463.62 384.47 1463.37 383.091 1462.87C381.742 1462.37 380.539 1461.65 379.483 1460.71C378.427 1459.74 377.591 1458.57 376.975 1457.19C376.359 1455.78 376.051 1454.17 376.051 1452.35V1451.82C376.051 1450.03 376.359 1448.45 376.975 1447.07C377.591 1445.66 378.427 1444.48 379.483 1443.51C380.539 1442.54 381.742 1441.81 383.091 1441.31C384.47 1440.81 385.907 1440.56 387.403 1440.56C388.899 1440.56 390.322 1440.81 391.671 1441.31C393.05 1441.81 394.267 1442.54 395.323 1443.51C396.379 1444.48 397.215 1445.66 397.831 1447.07C398.447 1448.45 398.755 1450.03 398.755 1451.82V1452.35ZM387.403 1458.34C388.195 1458.34 388.943 1458.2 389.647 1457.94C390.351 1457.68 390.967 1457.29 391.495 1456.8C392.023 1456.3 392.434 1455.7 392.727 1454.99C393.05 1454.26 393.211 1453.44 393.211 1452.53V1451.65C393.211 1450.74 393.05 1449.93 392.727 1449.23C392.434 1448.49 392.023 1447.88 391.495 1447.38C390.967 1446.88 390.351 1446.5 389.647 1446.24C388.943 1445.97 388.195 1445.84 387.403 1445.84C386.611 1445.84 385.863 1445.97 385.159 1446.24C384.455 1446.5 383.839 1446.88 383.311 1447.38C382.783 1447.88 382.358 1448.49 382.035 1449.23C381.742 1449.93 381.595 1450.74 381.595 1451.65V1452.53C381.595 1453.44 381.742 1454.26 382.035 1454.99C382.358 1455.7 382.783 1456.3 383.311 1456.8C383.839 1457.29 384.455 1457.68 385.159 1457.94C385.863 1458.2 386.611 1458.34 387.403 1458.34ZM426.225 1463H420.681V1447.69C420.681 1447.07 420.52 1446.62 420.197 1446.32C419.904 1446 419.508 1445.84 419.009 1445.84C418.422 1445.84 417.953 1446.02 417.601 1446.37C417.278 1446.72 417.117 1447.25 417.117 1447.95V1463H411.573V1447.69C411.573 1447.07 411.397 1446.62 411.045 1446.32C410.722 1446 410.326 1445.84 409.857 1445.84C409.329 1445.84 408.889 1446.02 408.537 1446.37C408.185 1446.72 408.009 1447.25 408.009 1447.95V1463H402.465V1441.18H408.009V1443.29H408.801C408.977 1442.5 409.373 1441.85 409.989 1441.35C410.634 1440.82 411.47 1440.56 412.497 1440.56C413.465 1440.56 414.286 1440.82 414.961 1441.35C415.636 1441.85 416.09 1442.5 416.325 1443.29H417.117C417.352 1442.5 417.836 1441.85 418.569 1441.35C419.332 1440.82 420.27 1440.56 421.385 1440.56C422.852 1440.56 424.025 1441.06 424.905 1442.06C425.785 1443.02 426.225 1444.37 426.225 1446.1V1463ZM453.166 1463H447.622V1447.69C447.622 1447.07 447.461 1446.62 447.138 1446.32C446.845 1446 446.449 1445.84 445.95 1445.84C445.364 1445.84 444.894 1446.02 444.542 1446.37C444.22 1446.72 444.058 1447.25 444.058 1447.95V1463H438.514V1447.69C438.514 1447.07 438.338 1446.62 437.986 1446.32C437.664 1446 437.268 1445.84 436.798 1445.84C436.27 1445.84 435.83 1446.02 435.478 1446.37C435.126 1446.72 434.95 1447.25 434.95 1447.95V1463H429.406V1441.18H434.95V1443.29H435.742C435.918 1442.5 436.314 1441.85 436.93 1441.35C437.576 1440.82 438.412 1440.56 439.438 1440.56C440.406 1440.56 441.228 1440.82 441.902 1441.35C442.577 1441.85 443.032 1442.5 443.266 1443.29H444.058C444.293 1442.5 444.777 1441.85 445.51 1441.35C446.273 1440.82 447.212 1440.56 448.326 1440.56C449.793 1440.56 450.966 1441.06 451.846 1442.06C452.726 1443.02 453.166 1444.37 453.166 1446.1V1463ZM479.58 1452.35C479.58 1454.17 479.272 1455.78 478.656 1457.19C478.04 1458.57 477.204 1459.74 476.148 1460.71C475.092 1461.65 473.874 1462.37 472.496 1462.87C471.146 1463.37 469.724 1463.62 468.228 1463.62C466.732 1463.62 465.294 1463.37 463.916 1462.87C462.566 1462.37 461.364 1461.65 460.308 1460.71C459.252 1459.74 458.416 1458.57 457.8 1457.19C457.184 1455.78 456.876 1454.17 456.876 1452.35V1451.82C456.876 1450.03 457.184 1448.45 457.8 1447.07C458.416 1445.66 459.252 1444.48 460.308 1443.51C461.364 1442.54 462.566 1441.81 463.916 1441.31C465.294 1440.81 466.732 1440.56 468.228 1440.56C469.724 1440.56 471.146 1440.81 472.496 1441.31C473.874 1441.81 475.092 1442.54 476.148 1443.51C477.204 1444.48 478.04 1445.66 478.656 1447.07C479.272 1448.45 479.58 1450.03 479.58 1451.82V1452.35ZM468.228 1458.34C469.02 1458.34 469.768 1458.2 470.472 1457.94C471.176 1457.68 471.792 1457.29 472.32 1456.8C472.848 1456.3 473.258 1455.7 473.552 1454.99C473.874 1454.26 474.036 1453.44 474.036 1452.53V1451.65C474.036 1450.74 473.874 1449.93 473.552 1449.23C473.258 1448.49 472.848 1447.88 472.32 1447.38C471.792 1446.88 471.176 1446.5 470.472 1446.24C469.768 1445.97 469.02 1445.84 468.228 1445.84C467.436 1445.84 466.688 1445.97 465.984 1446.24C465.28 1446.5 464.664 1446.88 464.136 1447.38C463.608 1447.88 463.182 1448.49 462.86 1449.23C462.566 1449.93 462.42 1450.74 462.42 1451.65V1452.53C462.42 1453.44 462.566 1454.26 462.86 1454.99C463.182 1455.7 463.608 1456.3 464.136 1456.8C464.664 1457.29 465.28 1457.68 465.984 1457.94C466.688 1458.2 467.436 1458.34 468.228 1458.34ZM490.681 1463H485.137V1441.18H490.681V1444.43H491.473C491.972 1443.2 492.778 1442.25 493.893 1441.57C495.008 1440.9 496.313 1440.56 497.809 1440.56C498.865 1440.56 499.848 1440.74 500.757 1441.09C501.696 1441.41 502.517 1441.92 503.221 1442.63C503.925 1443.33 504.468 1444.23 504.849 1445.31C505.26 1446.4 505.465 1447.69 505.465 1449.18V1463H499.921V1450.59C499.921 1449.04 499.54 1447.82 498.777 1446.94C498.044 1446.03 496.973 1445.58 495.565 1445.58C493.922 1445.58 492.69 1446.13 491.869 1447.25C491.077 1448.33 490.681 1449.8 490.681 1451.65V1463ZM544.564 1463H539.02V1441.18H544.564V1444.43H545.356C545.855 1443.2 546.661 1442.25 547.776 1441.57C548.891 1440.9 550.196 1440.56 551.692 1440.56C552.748 1440.56 553.731 1440.74 554.64 1441.09C555.579 1441.41 556.4 1441.92 557.104 1442.63C557.808 1443.33 558.351 1444.23 558.732 1445.31C559.143 1446.4 559.348 1447.69 559.348 1449.18V1463H553.804V1450.59C553.804 1449.04 553.423 1447.82 552.66 1446.94C551.927 1446.03 550.856 1445.58 549.448 1445.58C547.805 1445.58 546.573 1446.13 545.752 1447.25C544.96 1448.33 544.564 1449.8 544.564 1451.65V1463ZM587.345 1452.35C587.345 1454.17 587.037 1455.78 586.421 1457.19C585.805 1458.57 584.969 1459.74 583.913 1460.71C582.857 1461.65 581.64 1462.37 580.261 1462.87C578.912 1463.37 577.489 1463.62 575.993 1463.62C574.497 1463.62 573.06 1463.37 571.681 1462.87C570.332 1462.37 569.129 1461.65 568.073 1460.71C567.017 1459.74 566.181 1458.57 565.565 1457.19C564.949 1455.78 564.641 1454.17 564.641 1452.35V1451.82C564.641 1450.03 564.949 1448.45 565.565 1447.07C566.181 1445.66 567.017 1444.48 568.073 1443.51C569.129 1442.54 570.332 1441.81 571.681 1441.31C573.06 1440.81 574.497 1440.56 575.993 1440.56C577.489 1440.56 578.912 1440.81 580.261 1441.31C581.64 1441.81 582.857 1442.54 583.913 1443.51C584.969 1444.48 585.805 1445.66 586.421 1447.07C587.037 1448.45 587.345 1450.03 587.345 1451.82V1452.35ZM575.993 1458.34C576.785 1458.34 577.533 1458.2 578.237 1457.94C578.941 1457.68 579.557 1457.29 580.085 1456.8C580.613 1456.3 581.024 1455.7 581.317 1454.99C581.64 1454.26 581.801 1453.44 581.801 1452.53V1451.65C581.801 1450.74 581.64 1449.93 581.317 1449.23C581.024 1448.49 580.613 1447.88 580.085 1447.38C579.557 1446.88 578.941 1446.5 578.237 1446.24C577.533 1445.97 576.785 1445.84 575.993 1445.84C575.201 1445.84 574.453 1445.97 573.749 1446.24C573.045 1446.5 572.429 1446.88 571.901 1447.38C571.373 1447.88 570.948 1448.49 570.625 1449.23C570.332 1449.93 570.185 1450.74 570.185 1451.65V1452.53C570.185 1453.44 570.332 1454.26 570.625 1454.99C570.948 1455.7 571.373 1456.3 571.901 1456.8C572.429 1457.29 573.045 1457.68 573.749 1457.94C574.453 1458.2 575.201 1458.34 575.993 1458.34ZM591.847 1441.18H601.087V1444.34H601.879C602.289 1443.14 602.979 1442.22 603.947 1441.57C604.944 1440.9 606.132 1440.56 607.511 1440.56C609.681 1440.56 611.427 1441.25 612.747 1442.63C614.067 1443.98 614.727 1446.05 614.727 1448.83V1449.8L609.007 1450.33V1449.71C609.007 1448.51 608.699 1447.56 608.083 1446.85C607.467 1446.12 606.543 1445.75 605.311 1445.75C604.079 1445.75 603.111 1446.18 602.407 1447.03C601.703 1447.88 601.351 1449.1 601.351 1450.68V1457.72H606.367V1463H591.319V1457.72H595.807V1446.46H591.847V1441.18ZM641.756 1463H636.212V1447.69C636.212 1447.07 636.051 1446.62 635.728 1446.32C635.435 1446 635.039 1445.84 634.54 1445.84C633.953 1445.84 633.484 1446.02 633.132 1446.37C632.809 1446.72 632.648 1447.25 632.648 1447.95V1463H627.104V1447.69C627.104 1447.07 626.928 1446.62 626.576 1446.32C626.253 1446 625.857 1445.84 625.388 1445.84C624.86 1445.84 624.42 1446.02 624.068 1446.37C623.716 1446.72 623.54 1447.25 623.54 1447.95V1463H617.996V1441.18H623.54V1443.29H624.332C624.508 1442.5 624.904 1441.85 625.52 1441.35C626.165 1440.82 627.001 1440.56 628.028 1440.56C628.996 1440.56 629.817 1440.82 630.492 1441.35C631.167 1441.85 631.621 1442.5 631.856 1443.29H632.648C632.883 1442.5 633.367 1441.85 634.1 1441.35C634.863 1440.82 635.801 1440.56 636.916 1440.56C638.383 1440.56 639.556 1441.06 640.436 1442.06C641.316 1443.02 641.756 1444.37 641.756 1446.1V1463ZM660.91 1459.83C660.323 1461.21 659.502 1462.19 658.446 1462.78C657.39 1463.34 656.158 1463.62 654.75 1463.62C653.43 1463.62 652.183 1463.37 651.01 1462.87C649.866 1462.37 648.854 1461.64 647.974 1460.67C647.094 1459.7 646.39 1458.53 645.862 1457.15C645.363 1455.77 645.114 1454.2 645.114 1452.44V1451.74C645.114 1450.01 645.363 1448.45 645.862 1447.07C646.36 1445.69 647.035 1444.52 647.886 1443.55C648.736 1442.58 649.719 1441.85 650.834 1441.35C651.978 1440.82 653.195 1440.56 654.486 1440.56C656.04 1440.56 657.287 1440.82 658.226 1441.35C659.194 1441.88 659.956 1442.7 660.514 1443.82H661.306V1441.18H666.85V1456.4C666.85 1457.28 667.246 1457.72 668.038 1457.72H668.874V1463H665.09C664.092 1463 663.271 1462.71 662.626 1462.12C662.01 1461.53 661.702 1460.77 661.702 1459.83H660.91ZM655.982 1458.34C657.595 1458.34 658.886 1457.81 659.854 1456.75C660.822 1455.67 661.306 1454.2 661.306 1452.35V1451.82C661.306 1449.98 660.822 1448.52 659.854 1447.47C658.886 1446.38 657.595 1445.84 655.982 1445.84C654.368 1445.84 653.078 1446.38 652.11 1447.47C651.142 1448.52 650.658 1449.98 650.658 1451.82V1452.35C650.658 1454.2 651.142 1455.67 652.11 1456.75C653.078 1457.81 654.368 1458.34 655.982 1458.34ZM673.595 1457.72H681.251V1437.48H673.859V1432.2H686.795V1457.72H693.923V1463H673.595V1457.72ZM714.88 1459.44C714.88 1460.02 714.763 1460.58 714.528 1461.11C714.323 1461.61 714.03 1462.05 713.648 1462.43C713.267 1462.78 712.812 1463.06 712.284 1463.26C711.786 1463.5 711.258 1463.62 710.7 1463.62C710.114 1463.62 709.571 1463.5 709.072 1463.26C708.574 1463.06 708.134 1462.78 707.752 1462.43C707.371 1462.05 707.063 1461.61 706.828 1461.11C706.623 1460.58 706.52 1460.02 706.52 1459.44C706.52 1458.85 706.623 1458.31 706.828 1457.81C707.063 1457.28 707.371 1456.84 707.752 1456.49C708.134 1456.11 708.574 1455.81 709.072 1455.61C709.571 1455.37 710.114 1455.26 710.7 1455.26C711.258 1455.26 711.786 1455.37 712.284 1455.61C712.812 1455.81 713.267 1456.11 713.648 1456.49C714.03 1456.84 714.323 1457.28 714.528 1457.81C714.763 1458.31 714.88 1458.85 714.88 1459.44ZM714.88 1444.74C714.88 1445.33 714.763 1445.88 714.528 1446.41C714.323 1446.91 714.03 1447.35 713.648 1447.73C713.267 1448.08 712.812 1448.38 712.284 1448.61C711.786 1448.82 711.258 1448.92 710.7 1448.92C710.114 1448.92 709.571 1448.82 709.072 1448.61C708.574 1448.38 708.134 1448.08 707.752 1447.73C707.371 1447.35 707.063 1446.91 706.828 1446.41C706.623 1445.88 706.52 1445.33 706.52 1444.74C706.52 1444.15 706.623 1443.61 706.828 1443.11C707.063 1442.58 707.371 1442.14 707.752 1441.79C708.134 1441.41 708.574 1441.12 709.072 1440.91C709.571 1440.68 710.114 1440.56 710.7 1440.56C711.258 1440.56 711.786 1440.68 712.284 1440.91C712.812 1441.12 713.267 1441.41 713.648 1441.79C714.03 1442.14 714.323 1442.58 714.528 1443.11C714.763 1443.61 714.88 1444.15 714.88 1444.74ZM741.734 1459.83C741.147 1461.21 740.326 1462.19 739.27 1462.78C738.214 1463.34 736.982 1463.62 735.574 1463.62C734.254 1463.62 733.007 1463.37 731.834 1462.87C730.69 1462.37 729.678 1461.64 728.798 1460.67C727.918 1459.7 727.214 1458.53 726.686 1457.15C726.187 1455.77 725.938 1454.2 725.938 1452.44V1451.74C725.938 1450.01 726.187 1448.45 726.686 1447.07C727.184 1445.69 727.859 1444.52 728.71 1443.55C729.56 1442.58 730.543 1441.85 731.658 1441.35C732.802 1440.82 734.019 1440.56 735.31 1440.56C736.864 1440.56 738.111 1440.82 739.05 1441.35C740.018 1441.88 740.78 1442.7 741.338 1443.82H742.13V1441.18H747.674V1456.4C747.674 1457.28 748.07 1457.72 748.862 1457.72H749.698V1463H745.914C744.916 1463 744.095 1462.71 743.45 1462.12C742.834 1461.53 742.526 1460.77 742.526 1459.83H741.734ZM736.806 1458.34C738.419 1458.34 739.71 1457.81 740.678 1456.75C741.646 1455.67 742.13 1454.2 742.13 1452.35V1451.82C742.13 1449.98 741.646 1448.52 740.678 1447.47C739.71 1446.38 738.419 1445.84 736.806 1445.84C735.192 1445.84 733.902 1446.38 732.934 1447.47C731.966 1448.52 731.482 1449.98 731.482 1451.82V1452.35C731.482 1454.2 731.966 1455.67 732.934 1456.75C733.902 1457.81 735.192 1458.34 736.806 1458.34ZM757.719 1448.39H771.447V1453.41H757.719V1448.39ZM786.113 1463H780.569V1432.2H786.113V1444.34H786.905C787.491 1443.14 788.342 1442.22 789.457 1441.57C790.571 1440.9 791.994 1440.56 793.725 1440.56C795.015 1440.56 796.233 1440.81 797.377 1441.31C798.55 1441.81 799.562 1442.54 800.413 1443.51C801.293 1444.45 801.982 1445.61 802.481 1446.98C803.009 1448.36 803.273 1449.93 803.273 1451.69V1452.48C803.273 1454.27 803.023 1455.86 802.525 1457.24C802.026 1458.61 801.351 1459.79 800.501 1460.76C799.65 1461.69 798.638 1462.41 797.465 1462.91C796.321 1463.38 795.074 1463.62 793.725 1463.62C792.727 1463.62 791.862 1463.51 791.129 1463.31C790.395 1463.1 789.75 1462.82 789.193 1462.47C788.665 1462.12 788.21 1461.72 787.829 1461.28C787.477 1460.81 787.169 1460.33 786.905 1459.83H786.113V1463ZM791.921 1458.34C793.651 1458.34 795.045 1457.81 796.101 1456.75C797.186 1455.67 797.729 1454.2 797.729 1452.35V1451.82C797.729 1449.98 797.186 1448.52 796.101 1447.47C795.045 1446.38 793.651 1445.84 791.921 1445.84C790.19 1445.84 788.782 1446.4 787.697 1447.51C786.641 1448.6 786.113 1450.03 786.113 1451.82V1452.35C786.113 1454.14 786.641 1455.59 787.697 1456.71C788.782 1457.79 790.19 1458.34 791.921 1458.34Z" fill="white"/>
<path d="M1722.64 1789.08C1721.96 1792.6 1720.34 1795.44 1717.78 1797.6C1715.26 1799.76 1711.88 1800.84 1707.64 1800.84C1705.44 1800.84 1703.38 1800.5 1701.46 1799.82C1699.58 1799.14 1697.94 1798.16 1696.54 1796.88C1695.14 1795.6 1694.04 1794.02 1693.24 1792.14C1692.44 1790.26 1692.04 1788.12 1692.04 1785.72V1785C1692.04 1782.6 1692.44 1780.44 1693.24 1778.52C1694.04 1776.6 1695.14 1774.96 1696.54 1773.6C1697.98 1772.24 1699.64 1771.2 1701.52 1770.48C1703.44 1769.76 1705.48 1769.4 1707.64 1769.4C1711.8 1769.4 1715.16 1770.48 1717.72 1772.64C1720.32 1774.8 1721.96 1777.64 1722.64 1781.16L1715.2 1783.08C1714.96 1781.32 1714.2 1779.8 1712.92 1778.52C1711.64 1777.24 1709.84 1776.6 1707.52 1776.6C1706.44 1776.6 1705.42 1776.8 1704.46 1777.2C1703.5 1777.6 1702.66 1778.18 1701.94 1778.94C1701.22 1779.66 1700.64 1780.56 1700.2 1781.64C1699.8 1782.68 1699.6 1783.86 1699.6 1785.18V1785.54C1699.6 1786.86 1699.8 1788.04 1700.2 1789.08C1700.64 1790.08 1701.22 1790.92 1701.94 1791.6C1702.66 1792.28 1703.5 1792.8 1704.46 1793.16C1705.42 1793.48 1706.44 1793.64 1707.52 1793.64C1709.84 1793.64 1711.6 1793.06 1712.8 1791.9C1714.04 1790.74 1714.84 1789.18 1715.2 1787.22L1722.64 1789.08ZM1750.49 1770.24H1758.05V1800H1750.49V1795.68H1749.41C1748.09 1799.12 1745.25 1800.84 1740.89 1800.84C1739.41 1800.84 1738.03 1800.6 1736.75 1800.12C1735.47 1799.64 1734.35 1798.9 1733.39 1797.9C1732.43 1796.9 1731.67 1795.66 1731.11 1794.18C1730.59 1792.66 1730.33 1790.88 1730.33 1788.84V1770.24H1737.89V1787.28C1737.89 1789.4 1738.39 1791.06 1739.39 1792.26C1740.39 1793.42 1741.89 1794 1743.89 1794C1746.17 1794 1747.83 1793.28 1748.87 1791.84C1749.95 1790.36 1750.49 1788.36 1750.49 1785.84V1770.24ZM1765.63 1770.24H1778.23V1774.56H1779.31C1779.87 1772.92 1780.81 1771.66 1782.13 1770.78C1783.49 1769.86 1785.11 1769.4 1786.99 1769.4C1789.95 1769.4 1792.33 1770.34 1794.13 1772.22C1795.93 1774.06 1796.83 1776.88 1796.83 1780.68V1782L1789.03 1782.72V1781.88C1789.03 1780.24 1788.61 1778.94 1787.77 1777.98C1786.93 1776.98 1785.67 1776.48 1783.99 1776.48C1782.31 1776.48 1780.99 1777.06 1780.03 1778.22C1779.07 1779.38 1778.59 1781.04 1778.59 1783.2V1792.8H1785.43V1800H1764.91V1792.8H1771.03V1777.44H1765.63V1770.24ZM1801.71 1770.24H1809.87L1816.89 1796.4H1817.97L1824.99 1770.24H1833.15L1824.63 1800H1810.23L1801.71 1770.24ZM1847.21 1787.58C1847.25 1788.46 1847.45 1789.28 1847.81 1790.04C1848.21 1790.76 1848.73 1791.4 1849.37 1791.96C1850.05 1792.48 1850.81 1792.9 1851.65 1793.22C1852.53 1793.5 1853.45 1793.64 1854.41 1793.64C1856.29 1793.64 1857.73 1793.32 1858.73 1792.68C1859.73 1792 1860.45 1791.2 1860.89 1790.28L1867.37 1793.88C1867.01 1794.64 1866.51 1795.44 1865.87 1796.28C1865.23 1797.08 1864.39 1797.82 1863.35 1798.5C1862.35 1799.18 1861.11 1799.74 1859.63 1800.18C1858.19 1800.62 1856.49 1800.84 1854.53 1800.84C1852.29 1800.84 1850.25 1800.48 1848.41 1799.76C1846.57 1799.04 1844.97 1798 1843.61 1796.64C1842.29 1795.28 1841.25 1793.62 1840.49 1791.66C1839.77 1789.7 1839.41 1787.48 1839.41 1785V1784.64C1839.41 1782.36 1839.79 1780.28 1840.55 1778.4C1841.35 1776.52 1842.43 1774.92 1843.79 1773.6C1845.15 1772.28 1846.73 1771.26 1848.53 1770.54C1850.37 1769.78 1852.33 1769.4 1854.41 1769.4C1856.97 1769.4 1859.17 1769.86 1861.01 1770.78C1862.85 1771.66 1864.37 1772.8 1865.57 1774.2C1866.77 1775.56 1867.65 1777.08 1868.21 1778.76C1868.77 1780.4 1869.05 1782 1869.05 1783.56V1787.58H1847.21ZM1854.35 1776.24C1852.43 1776.24 1850.87 1776.74 1849.67 1777.74C1848.47 1778.7 1847.69 1779.82 1847.33 1781.1H1861.37C1861.13 1779.7 1860.37 1778.54 1859.09 1777.62C1857.85 1776.7 1856.27 1776.24 1854.35 1776.24ZM1925.19 1792.44V1761.96H1924.11L1920.15 1776.36H1912.59V1775.64L1917.63 1758H1933.11V1792.44H1943.55V1800H1913.31V1792.44H1925.19Z" fill="white"/>
<path d="M239.636 1115.08C238.956 1118.6 237.336 1121.44 234.776 1123.6C232.256 1125.76 228.876 1126.84 224.636 1126.84C222.436 1126.84 220.376 1126.5 218.456 1125.82C216.576 1125.14 214.936 1124.16 213.536 1122.88C212.136 1121.6 211.036 1120.02 210.236 1118.14C209.436 1116.26 209.036 1114.12 209.036 1111.72V1111C209.036 1108.6 209.436 1106.44 210.236 1104.52C211.036 1102.6 212.136 1100.96 213.536 1099.6C214.976 1098.24 216.636 1097.2 218.516 1096.48C220.436 1095.76 222.476 1095.4 224.636 1095.4C228.796 1095.4 232.156 1096.48 234.716 1098.64C237.316 1100.8 238.956 1103.64 239.636 1107.16L232.196 1109.08C231.956 1107.32 231.196 1105.8 229.916 1104.52C228.636 1103.24 226.836 1102.6 224.516 1102.6C223.436 1102.6 222.416 1102.8 221.456 1103.2C220.496 1103.6 219.656 1104.18 218.936 1104.94C218.216 1105.66 217.636 1106.56 217.196 1107.64C216.796 1108.68 216.596 1109.86 216.596 1111.18V1111.54C216.596 1112.86 216.796 1114.04 217.196 1115.08C217.636 1116.08 218.216 1116.92 218.936 1117.6C219.656 1118.28 220.496 1118.8 221.456 1119.16C222.416 1119.48 223.436 1119.64 224.516 1119.64C226.836 1119.64 228.596 1119.06 229.796 1117.9C231.036 1116.74 231.836 1115.18 232.196 1113.22L239.636 1115.08ZM267.494 1096.24H275.054V1126H267.494V1121.68H266.414C265.094 1125.12 262.254 1126.84 257.894 1126.84C256.414 1126.84 255.034 1126.6 253.754 1126.12C252.474 1125.64 251.354 1124.9 250.394 1123.9C249.434 1122.9 248.674 1121.66 248.114 1120.18C247.594 1118.66 247.334 1116.88 247.334 1114.84V1096.24H254.894V1113.28C254.894 1115.4 255.394 1117.06 256.394 1118.26C257.394 1119.42 258.894 1120 260.894 1120C263.174 1120 264.834 1119.28 265.874 1117.84C266.954 1116.36 267.494 1114.36 267.494 1111.84V1096.24ZM282.633 1096.24H295.233V1100.56H296.313C296.873 1098.92 297.813 1097.66 299.133 1096.78C300.493 1095.86 302.113 1095.4 303.993 1095.4C306.953 1095.4 309.333 1096.34 311.133 1098.22C312.933 1100.06 313.833 1102.88 313.833 1106.68V1108L306.033 1108.72V1107.88C306.033 1106.24 305.613 1104.94 304.773 1103.98C303.933 1102.98 302.673 1102.48 300.993 1102.48C299.313 1102.48 297.993 1103.06 297.033 1104.22C296.073 1105.38 295.593 1107.04 295.593 1109.2V1118.8H302.433V1126H281.913V1118.8H288.033V1103.44H282.633V1096.24ZM318.711 1096.24H326.871L333.891 1122.4H334.971L341.991 1096.24H350.151L341.631 1126H327.231L318.711 1096.24ZM364.209 1113.58C364.249 1114.46 364.449 1115.28 364.809 1116.04C365.209 1116.76 365.729 1117.4 366.369 1117.96C367.049 1118.48 367.809 1118.9 368.649 1119.22C369.529 1119.5 370.449 1119.64 371.409 1119.64C373.289 1119.64 374.729 1119.32 375.729 1118.68C376.729 1118 377.449 1117.2 377.889 1116.28L384.369 1119.88C384.009 1120.64 383.509 1121.44 382.869 1122.28C382.229 1123.08 381.389 1123.82 380.349 1124.5C379.349 1125.18 378.109 1125.74 376.629 1126.18C375.189 1126.62 373.489 1126.84 371.529 1126.84C369.289 1126.84 367.249 1126.48 365.409 1125.76C363.569 1125.04 361.969 1124 360.609 1122.64C359.289 1121.28 358.249 1119.62 357.489 1117.66C356.769 1115.7 356.409 1113.48 356.409 1111V1110.64C356.409 1108.36 356.789 1106.28 357.549 1104.4C358.349 1102.52 359.429 1100.92 360.789 1099.6C362.149 1098.28 363.729 1097.26 365.529 1096.54C367.369 1095.78 369.329 1095.4 371.409 1095.4C373.969 1095.4 376.169 1095.86 378.009 1096.78C379.849 1097.66 381.369 1098.8 382.569 1100.2C383.769 1101.56 384.649 1103.08 385.209 1104.76C385.769 1106.4 386.049 1108 386.049 1109.56V1113.58H364.209ZM371.349 1102.24C369.429 1102.24 367.869 1102.74 366.669 1103.74C365.469 1104.7 364.689 1105.82 364.329 1107.1H378.369C378.129 1105.7 377.369 1104.54 376.089 1103.62C374.849 1102.7 373.269 1102.24 371.349 1102.24ZM459.766 1118.44V1126H430.246V1117.72C430.246 1115.52 430.566 1113.64 431.206 1112.08C431.886 1110.52 432.826 1109.2 434.026 1108.12C435.266 1107.04 436.746 1106.16 438.466 1105.48C440.186 1104.76 442.126 1104.16 444.286 1103.68C445.886 1103.32 447.186 1102.92 448.186 1102.48C449.226 1102 450.046 1101.48 450.646 1100.92C451.246 1100.32 451.646 1099.68 451.846 1099C452.086 1098.28 452.206 1097.48 452.206 1096.6C452.206 1094.92 451.586 1093.52 450.346 1092.4C449.146 1091.28 447.466 1090.72 445.306 1090.72C443.026 1090.72 441.206 1091.42 439.846 1092.82C438.486 1094.18 437.806 1096.08 437.806 1098.52V1101.16H429.886V1097.8C429.886 1095.84 430.226 1093.98 430.906 1092.22C431.626 1090.42 432.626 1088.86 433.906 1087.54C435.226 1086.18 436.826 1085.12 438.706 1084.36C440.586 1083.56 442.706 1083.16 445.066 1083.16C447.586 1083.16 449.786 1083.54 451.666 1084.3C453.546 1085.02 455.106 1085.98 456.346 1087.18C457.626 1088.38 458.566 1089.78 459.166 1091.38C459.806 1092.94 460.126 1094.56 460.126 1096.24V1096.96C460.126 1100.48 459.126 1103.4 457.126 1105.72C455.166 1108.04 451.946 1109.72 447.466 1110.76C445.586 1111.2 444.026 1111.66 442.786 1112.14C441.586 1112.58 440.646 1113.08 439.966 1113.64C439.286 1114.2 438.806 1114.82 438.526 1115.5C438.286 1116.14 438.166 1116.88 438.166 1117.72V1118.44H459.766Z" fill="white"/>
<path d="M543.492 1954.6H575.748V1963.67H552.996V1975.19H575.316V1984.26H552.996V2005H543.492V1954.6ZM587.506 1996.36H599.602V1977.93H588.37V1969.29H608.674V1996.36H619.042V2005H587.506V1996.36ZM610.906 1958.7C610.906 1959.66 610.714 1960.58 610.33 1961.44C609.994 1962.26 609.514 1962.98 608.89 1963.6C608.266 1964.18 607.522 1964.66 606.658 1965.04C605.842 1965.38 604.978 1965.54 604.066 1965.54C603.106 1965.54 602.218 1965.38 601.402 1965.04C600.586 1964.66 599.866 1964.18 599.242 1963.6C598.618 1962.98 598.114 1962.26 597.73 1961.44C597.394 1960.58 597.226 1959.66 597.226 1958.7C597.226 1957.74 597.394 1956.86 597.73 1956.04C598.114 1955.18 598.618 1954.46 599.242 1953.88C599.866 1953.26 600.586 1952.78 601.402 1952.44C602.218 1952.06 603.106 1951.86 604.066 1951.86C604.978 1951.86 605.842 1952.06 606.658 1952.44C607.522 1952.78 608.266 1953.26 608.89 1953.88C609.514 1954.46 609.994 1955.18 610.33 1956.04C610.714 1956.86 610.906 1957.74 610.906 1958.7ZM656.432 1999.82H655.136C654.752 2000.63 654.272 2001.42 653.696 2002.19C653.168 2002.91 652.448 2003.56 651.536 2004.14C650.672 2004.71 649.616 2005.17 648.368 2005.5C647.168 2005.84 645.704 2006.01 643.976 2006.01C641.768 2006.01 639.704 2005.62 637.784 2004.86C635.912 2004.04 634.256 2002.86 632.816 2001.33C631.424 1999.74 630.32 1997.82 629.504 1995.57C628.736 1993.31 628.352 1990.72 628.352 1987.79V1986.5C628.352 1983.62 628.76 1981.05 629.576 1978.79C630.44 1976.54 631.592 1974.64 633.032 1973.1C634.52 1971.52 636.224 1970.32 638.144 1969.5C640.112 1968.69 642.176 1968.28 644.336 1968.28C647.216 1968.28 649.496 1968.83 651.176 1969.94C652.856 1970.99 654.176 1972.5 655.136 1974.47H656.432V1969.29H665.504V2013.78C665.504 2015.42 664.976 2016.76 663.92 2017.82C662.912 2018.87 661.592 2019.4 659.96 2019.4H635.912V2010.76H654.488C655.784 2010.76 656.432 2010.04 656.432 2008.6V1999.82ZM646.928 1997.37C649.76 1997.37 652.04 1996.48 653.768 1994.7C655.544 1992.88 656.432 1990.5 656.432 1987.58V1986.71C656.432 1983.78 655.544 1981.43 653.768 1979.66C652.04 1977.83 649.76 1976.92 646.928 1976.92C644.096 1976.92 641.792 1977.81 640.016 1979.58C638.288 1981.31 637.424 1983.69 637.424 1986.71V1987.58C637.424 1990.6 638.288 1993 640.016 1994.78C641.792 1996.5 644.096 1997.37 646.928 1997.37ZM699.222 1969.29H708.294V2005H699.222V1999.82H697.926C696.342 2003.94 692.934 2006.01 687.702 2006.01C685.926 2006.01 684.27 2005.72 682.734 2005.14C681.198 2004.57 679.854 2003.68 678.702 2002.48C677.55 2001.28 676.638 1999.79 675.966 1998.02C675.342 1996.19 675.03 1994.06 675.03 1991.61V1969.29H684.102V1989.74C684.102 1992.28 684.702 1994.27 685.902 1995.71C687.102 1997.1 688.902 1997.8 691.302 1997.8C694.038 1997.8 696.03 1996.94 697.278 1995.21C698.574 1993.43 699.222 1991.03 699.222 1988.01V1969.29ZM717.388 1969.29H732.508V1974.47H733.804C734.476 1972.5 735.604 1970.99 737.188 1969.94C738.82 1968.83 740.764 1968.28 743.02 1968.28C746.572 1968.28 749.428 1969.41 751.588 1971.66C753.748 1973.87 754.828 1977.26 754.828 1981.82V1983.4L745.468 1984.26V1983.26C745.468 1981.29 744.964 1979.73 743.956 1978.58C742.948 1977.38 741.436 1976.78 739.42 1976.78C737.404 1976.78 735.82 1977.47 734.668 1978.86C733.516 1980.26 732.94 1982.25 732.94 1984.84V1996.36H741.148V2005H716.524V1996.36H723.868V1977.93H717.388V1969.29ZM771.194 1990.1C771.242 1991.15 771.482 1992.14 771.914 1993.05C772.394 1993.91 773.018 1994.68 773.786 1995.35C774.602 1995.98 775.514 1996.48 776.522 1996.86C777.578 1997.2 778.682 1997.37 779.834 1997.37C782.09 1997.37 783.818 1996.98 785.018 1996.22C786.218 1995.4 787.082 1994.44 787.61 1993.34L795.386 1997.66C794.954 1998.57 794.354 1999.53 793.586 2000.54C792.818 2001.5 791.81 2002.38 790.562 2003.2C789.362 2004.02 787.874 2004.69 786.098 2005.22C784.37 2005.74 782.33 2006.01 779.978 2006.01C777.29 2006.01 774.842 2005.58 772.634 2004.71C770.426 2003.85 768.506 2002.6 766.874 2000.97C765.29 1999.34 764.042 1997.34 763.13 1994.99C762.266 1992.64 761.834 1989.98 761.834 1987V1986.57C761.834 1983.83 762.29 1981.34 763.202 1979.08C764.162 1976.82 765.458 1974.9 767.09 1973.32C768.722 1971.74 770.618 1970.51 772.778 1969.65C774.986 1968.74 777.338 1968.28 779.834 1968.28C782.906 1968.28 785.546 1968.83 787.754 1969.94C789.962 1970.99 791.786 1972.36 793.226 1974.04C794.666 1975.67 795.722 1977.5 796.394 1979.51C797.066 1981.48 797.402 1983.4 797.402 1985.27V1990.1H771.194ZM779.762 1976.49C777.458 1976.49 775.586 1977.09 774.146 1978.29C772.706 1979.44 771.77 1980.78 771.338 1982.32H788.186C787.898 1980.64 786.986 1979.25 785.45 1978.14C783.962 1977.04 782.066 1976.49 779.762 1976.49ZM864.766 1995.93V1959.35H863.47L858.718 1976.63H849.646V1975.77L855.694 1954.6H874.27V1995.93H886.798V2005H850.51V1995.93H864.766Z" fill="white"/>
<path d="M507.978 639.753C507.191 641.602 506.09 642.919 504.674 643.706C503.258 644.453 501.606 644.827 499.718 644.827C497.948 644.827 496.276 644.493 494.703 643.824C493.169 643.155 491.812 642.172 490.632 640.874C489.452 639.576 488.508 638.003 487.8 636.154C487.131 634.305 486.797 632.201 486.797 629.841V628.897C486.797 626.576 487.131 624.492 487.8 622.643C488.469 620.794 489.373 619.221 490.514 617.923C491.655 616.625 492.972 615.642 494.467 614.973C496.001 614.265 497.633 613.911 499.364 613.911C501.449 613.911 503.12 614.265 504.379 614.973C505.677 615.681 506.7 616.782 507.447 618.277H508.509V614.737H515.943V635.151C515.943 636.331 516.474 636.921 517.536 636.921H518.657V644.001H513.583C512.246 644.001 511.144 643.608 510.279 642.821C509.453 642.034 509.04 641.012 509.04 639.753H507.978ZM501.37 637.747C503.533 637.747 505.264 637.039 506.562 635.623C507.86 634.168 508.509 632.201 508.509 629.723V629.015C508.509 626.537 507.86 624.59 506.562 623.174C505.264 621.719 503.533 620.991 501.37 620.991C499.207 620.991 497.476 621.719 496.178 623.174C494.88 624.59 494.231 626.537 494.231 629.015V629.723C494.231 632.201 494.88 634.168 496.178 635.623C497.476 637.039 499.207 637.747 501.37 637.747Z" fill="white"/>
<circle cx="633" cy="268" r="52" fill="#C4C4C4" fill-opacity="0.3"/>
<circle cx="633" cy="268" r="81" fill="#C4C4C4" fill-opacity="0.3"/>
<path d="M644.978 227.608C644.978 221.805 646.429 217.304 649.33 214.104C652.274 210.904 656.328 209.304 661.49 209.304C666.653 209.304 670.685 210.904 673.586 214.104C676.53 217.304 678.002 221.805 678.002 227.608V237.592C678.002 243.565 676.53 248.109 673.586 251.224C670.685 254.339 666.653 255.896 661.49 255.896C656.328 255.896 652.274 254.339 649.33 251.224C646.429 248.109 644.978 243.565 644.978 237.592V227.608ZM661.49 248.216C663.026 248.216 664.306 247.981 665.33 247.512C666.354 247 667.186 246.296 667.826 245.4C668.466 244.504 668.914 243.437 669.17 242.2C669.426 240.963 669.554 239.597 669.554 238.104V227.096C669.554 225.688 669.405 224.365 669.106 223.128C668.808 221.891 668.338 220.824 667.698 219.928C667.058 219.032 666.226 218.328 665.202 217.816C664.178 217.261 662.941 216.984 661.49 216.984C660.04 216.984 658.802 217.261 657.778 217.816C656.754 218.328 655.922 219.032 655.282 219.928C654.642 220.824 654.173 221.891 653.874 223.128C653.576 224.365 653.426 225.688 653.426 227.096V238.104C653.426 239.597 653.554 240.963 653.81 242.2C654.066 243.437 654.514 244.504 655.154 245.4C655.794 246.296 656.626 247 657.65 247.512C658.674 247.981 659.954 248.216 661.49 248.216Z" fill="white"/>
<path d="M1535.07 2101.61C1535.07 2095.81 1536.52 2091.31 1539.42 2088.11C1542.37 2084.91 1546.42 2083.31 1551.58 2083.31C1556.75 2083.31 1560.78 2084.91 1563.68 2088.11C1566.62 2091.31 1568.1 2095.81 1568.1 2101.61V2111.59C1568.1 2117.57 1566.62 2122.11 1563.68 2125.23C1560.78 2128.34 1556.75 2129.9 1551.58 2129.9C1546.42 2129.9 1542.37 2128.34 1539.42 2125.23C1536.52 2122.11 1535.07 2117.57 1535.07 2111.59V2101.61ZM1551.58 2122.22C1553.12 2122.22 1554.4 2121.98 1555.42 2121.51C1556.45 2121 1557.28 2120.3 1557.92 2119.4C1558.56 2118.51 1559.01 2117.44 1559.26 2116.2C1559.52 2114.96 1559.65 2113.6 1559.65 2112.11V2101.1C1559.65 2099.69 1559.5 2098.37 1559.2 2097.13C1558.9 2095.89 1558.43 2094.83 1557.79 2093.93C1557.15 2093.03 1556.32 2092.33 1555.3 2091.82C1554.27 2091.26 1553.04 2090.99 1551.58 2090.99C1550.13 2090.99 1548.9 2091.26 1547.87 2091.82C1546.85 2092.33 1546.02 2093.03 1545.38 2093.93C1544.74 2094.83 1544.27 2095.89 1543.97 2097.13C1543.67 2098.37 1543.52 2099.69 1543.52 2101.1V2112.11C1543.52 2113.6 1543.65 2114.96 1543.9 2116.2C1544.16 2117.44 1544.61 2118.51 1545.25 2119.4C1545.89 2120.3 1546.72 2121 1547.74 2121.51C1548.77 2121.98 1550.05 2122.22 1551.58 2122.22Z" fill="white"/>
<path d="M1161.23 1100H1153.8V1058.7H1161.23V1074.98H1162.3C1163.08 1073.37 1164.22 1072.13 1165.72 1071.27C1167.21 1070.36 1169.12 1069.91 1171.44 1069.91C1173.17 1069.91 1174.8 1070.25 1176.34 1070.91C1177.91 1071.58 1179.27 1072.57 1180.41 1073.86C1181.59 1075.12 1182.51 1076.68 1183.18 1078.52C1183.89 1080.37 1184.24 1082.48 1184.24 1084.84V1085.9C1184.24 1088.3 1183.91 1090.42 1183.24 1092.27C1182.57 1094.12 1181.67 1095.69 1180.53 1096.99C1179.39 1098.25 1178.03 1099.21 1176.46 1099.88C1174.92 1100.51 1173.25 1100.83 1171.44 1100.83C1170.1 1100.83 1168.94 1100.69 1167.96 1100.41C1166.98 1100.14 1166.11 1099.76 1165.36 1099.29C1164.66 1098.82 1164.05 1098.29 1163.54 1097.7C1163.06 1097.07 1162.65 1096.42 1162.3 1095.75H1161.23V1100ZM1169.02 1093.75C1171.34 1093.75 1173.21 1093.04 1174.63 1091.62C1176.08 1090.17 1176.81 1088.2 1176.81 1085.72V1085.01C1176.81 1082.54 1176.08 1080.59 1174.63 1079.17C1173.21 1077.72 1171.34 1076.99 1169.02 1076.99C1166.7 1076.99 1164.81 1077.74 1163.36 1079.23C1161.94 1080.69 1161.23 1082.62 1161.23 1085.01V1085.72C1161.23 1088.12 1161.94 1090.07 1163.36 1091.56C1164.81 1093.02 1166.7 1093.75 1169.02 1093.75Z" fill="white"/>
<path d="M992.473 1035.42V1051H984.685V1009.7H1000.85C1002.98 1009.7 1004.82 1010.05 1006.4 1010.76C1007.97 1011.43 1009.27 1012.34 1010.29 1013.48C1011.35 1014.58 1012.14 1015.86 1012.65 1017.31C1013.2 1018.73 1013.48 1020.18 1013.48 1021.68V1023.09C1013.48 1024.63 1013.2 1026.14 1012.65 1027.64C1012.14 1029.09 1011.35 1030.41 1010.29 1031.59C1009.27 1032.73 1007.97 1033.65 1006.4 1034.36C1004.82 1035.07 1002.98 1035.42 1000.85 1035.42H992.473ZM992.473 1027.99H1000.08C1001.81 1027.99 1003.17 1027.52 1004.16 1026.57C1005.18 1025.63 1005.69 1024.41 1005.69 1022.92V1022.21C1005.69 1020.71 1005.18 1019.49 1004.16 1018.55C1003.17 1017.61 1001.81 1017.13 1000.08 1017.13H992.473V1027.99Z" fill="white"/>
<path d="M762.595 844.262C761.926 847.723 760.333 850.516 757.816 852.64C755.338 854.764 752.014 855.826 747.845 855.826C745.682 855.826 743.656 855.492 741.768 854.823C739.919 854.154 738.307 853.191 736.93 851.932C735.553 850.673 734.472 849.12 733.685 847.271C732.898 845.422 732.505 843.318 732.505 840.958V840.25C732.505 837.89 732.898 835.766 733.685 833.878C734.472 831.99 735.553 830.377 736.93 829.04C738.346 827.703 739.978 826.68 741.827 825.972C743.715 825.264 745.721 824.91 747.845 824.91C751.936 824.91 755.24 825.972 757.757 828.096C760.314 830.22 761.926 833.013 762.595 836.474L755.279 838.362C755.043 836.631 754.296 835.137 753.037 833.878C751.778 832.619 750.008 831.99 747.727 831.99C746.665 831.99 745.662 832.187 744.718 832.58C743.774 832.973 742.948 833.544 742.24 834.291C741.532 834.999 740.962 835.884 740.529 836.946C740.136 837.969 739.939 839.129 739.939 840.427V840.781C739.939 842.079 740.136 843.239 740.529 844.262C740.962 845.245 741.532 846.071 742.24 846.74C742.948 847.409 743.774 847.92 744.718 848.274C745.662 848.589 746.665 848.746 747.727 848.746C750.008 848.746 751.739 848.176 752.919 847.035C754.138 845.894 754.925 844.36 755.279 842.433L762.595 844.262Z" fill="white"/>
<path fill-rule="evenodd" clip-rule="evenodd" d="M1388.23 900.963C1258.44 893.358 1125.05 922.322 1004.02 992.139C882.981 1061.96 791.123 1162.93 732.726 1279.08L726.461 1282.7C785.048 1163.59 878.404 1059.98 1002.02 988.674C1125.63 917.37 1262.06 888.432 1394.5 897.349L1388.23 900.963Z" fill="white" fill-opacity="0.5"/>
<path fill-rule="evenodd" clip-rule="evenodd" d="M1285.28 687.671C1227.94 804.352 1137 906.151 1016.6 977.064C896.207 1047.98 763.082 1078.15 633.232 1071.72L627 1075.39C759.51 1083.11 895.672 1052.93 1018.63 980.51C1141.59 908.087 1234.01 803.633 1291.51 684.001L1285.28 687.671Z" fill="white" fill-opacity="0.5"/>
<line x1="1392.49" y1="899.92" x2="1584.18" y2="2073.97" stroke="white" stroke-opacity="0.4"/>
<line x1="722.339" y1="1290.63" x2="1583.84" y2="2084.17" stroke="white" stroke-opacity="0.4"/>
<line x1="633.267" y1="266.577" x2="1292.27" y2="683.578" stroke="white" stroke-opacity="0.4"/>
<line x1="632.5" y1="264.999" x2="633.5" y2="1075" stroke="white" stroke-opacity="0.4"/>
</svg>
