<svg width="95" height="116" viewBox="0 0 95 116" fill="none" xmlns="http://www.w3.org/2000/svg">
<path d="M1.71838 0C1.43653 0.000331435 1.16631 0.112443 0.967015 0.311741C0.767716 0.51104 0.655605 0.781252 0.655273 1.0631V114.815C0.655605 115.097 0.767716 115.367 0.967015 115.566C1.16631 115.766 1.43653 115.878 1.71838 115.878H93.3577C93.6396 115.878 93.9098 115.766 94.1091 115.566C94.3084 115.367 94.4205 115.097 94.4208 114.815V1.0631C94.4205 0.781252 94.3084 0.51104 94.1091 0.311741C93.9098 0.112443 93.6396 0.000330873 93.3577 0H1.71838Z" fill="#D8953D"/>
<path d="M78.7936 49.6727H16.2831C15.8602 49.6727 15.4546 49.5047 15.1555 49.2056C14.8565 48.9066 14.6885 48.501 14.6885 48.0781C14.6885 47.6551 14.8565 47.2495 15.1555 46.9505C15.4546 46.6514 15.8602 46.4834 16.2831 46.4834H78.7936C79.2165 46.4834 79.6221 46.6514 79.9212 46.9505C80.2202 47.2495 80.3882 47.6551 80.3882 48.0781C80.3882 48.501 80.2202 48.9066 79.9212 49.2056C79.6221 49.5047 79.2165 49.6727 78.7936 49.6727Z" fill="black"/>
<path d="M79.3301 19.9598H37.8587C37.2745 19.9598 36.8008 19.2459 36.8008 18.3652C36.8008 17.4845 37.2745 16.7705 37.8587 16.7705H79.3301C79.9144 16.7705 80.388 17.4845 80.388 18.3652C80.388 19.2459 79.9144 19.9598 79.3301 19.9598Z" fill="black"/>
<path d="M79.3301 29.1024H37.8587C37.2745 29.1024 36.8008 28.3884 36.8008 27.5077C36.8008 26.627 37.2745 25.9131 37.8587 25.9131H79.3301C79.9144 25.9131 80.388 26.627 80.388 27.5077C80.388 28.3884 79.9144 29.1024 79.3301 29.1024Z" fill="black"/>
<path d="M78.7936 59.9852H16.2831C15.8602 59.9852 15.4546 59.8172 15.1555 59.5181C14.8565 59.2191 14.6885 58.8135 14.6885 58.3906C14.6885 57.9676 14.8565 57.562 15.1555 57.263C15.4546 56.9639 15.8602 56.7959 16.2831 56.7959H78.7936C79.2165 56.7959 79.6221 56.9639 79.9212 57.263C80.2202 57.562 80.3882 57.9676 80.3882 58.3906C80.3882 58.8135 80.2202 59.2191 79.9212 59.5181C79.6221 59.8172 79.2165 59.9852 78.7936 59.9852Z" fill="black"/>
<path d="M78.7936 70.2977H16.2831C15.8602 70.2977 15.4546 70.1297 15.1555 69.8306C14.8565 69.5316 14.6885 69.126 14.6885 68.7031C14.6885 68.2801 14.8565 67.8745 15.1555 67.5755C15.4546 67.2764 15.8602 67.1084 16.2831 67.1084H78.7936C79.2165 67.1084 79.6221 67.2764 79.9212 67.5755C80.2202 67.8745 80.3882 68.2801 80.3882 68.7031C80.3882 69.126 80.2202 69.5316 79.9212 69.8306C79.6221 70.1297 79.2165 70.2977 78.7936 70.2977Z" fill="black"/>
<path d="M78.7936 80.6102H16.2831C15.8602 80.6102 15.4546 80.4422 15.1555 80.1432C14.8565 79.8441 14.6885 79.4385 14.6885 79.0156C14.6885 78.5926 14.8565 78.187 15.1555 77.888C15.4546 77.5889 15.8602 77.4209 16.2831 77.4209H78.7936C79.2165 77.4209 79.6221 77.5889 79.9212 77.888C80.2202 78.187 80.3882 78.5926 80.3882 79.0156C80.3882 79.4385 80.2202 79.8441 79.9212 80.1432C79.6221 80.4422 79.2165 80.6102 78.7936 80.6102Z" fill="black"/>
<path d="M78.7936 90.9217H16.2831C15.8602 90.9217 15.4546 90.7537 15.1555 90.4547C14.8565 90.1556 14.6885 89.75 14.6885 89.3271C14.6885 88.9041 14.8565 88.4985 15.1555 88.1995C15.4546 87.9004 15.8602 87.7324 16.2831 87.7324H78.7936C79.2165 87.7324 79.6221 87.9004 79.9212 88.1995C80.2202 88.4985 80.3882 88.9041 80.3882 89.3271C80.3882 89.75 80.2202 90.1556 79.9212 90.4547C79.6221 90.7537 79.2165 90.9217 78.7936 90.9217Z" fill="black"/>
<path d="M78.7936 101.234H16.2831C15.8602 101.234 15.4546 101.066 15.1555 100.767C14.8565 100.468 14.6885 100.063 14.6885 99.6396C14.6885 99.2166 14.8565 98.811 15.1555 98.512C15.4546 98.2129 15.8602 98.0449 16.2831 98.0449H78.7936C79.2165 98.0449 79.6221 98.2129 79.9212 98.512C80.2202 98.811 80.3882 99.2166 80.3882 99.6396C80.3882 100.063 80.2202 100.468 79.9212 100.767C79.6221 101.066 79.2165 101.234 78.7936 101.234Z" fill="black"/>
<path d="M23.087 31.4416C27.7254 31.4416 31.4855 27.6814 31.4855 23.043C31.4855 18.4047 27.7254 14.6445 23.087 14.6445C18.4486 14.6445 14.6885 18.4047 14.6885 23.043C14.6885 27.6814 18.4486 31.4416 23.087 31.4416Z" fill="black"/>
</svg>
